# Blender 4.0.1
# www.blender.org
mtllib Pig_Low_Poly.mtl
o Pig_Low_Poly
v -0.038126 0.504529 0.681592
v 0.036964 0.494143 0.675999
v -0.045949 0.473668 0.682855
v 0.041081 0.452483 0.668584
v -0.002052 0.530480 0.684577
v -0.051604 0.420897 0.656588
v 0.048031 0.421113 0.653920
v -0.058565 0.470806 0.651536
v 0.059804 0.439956 0.640540
v 0.047444 0.505797 0.633569
v 0.051043 0.401542 0.629875
v 0.006181 0.425500 0.652689
v -0.064743 0.416472 0.593664
v -0.037458 0.511443 0.636991
v 0.012066 0.521127 0.629863
v 0.074060 0.473285 0.590261
v -0.040958 0.535319 0.591888
v -0.038558 0.382347 0.581481
v 0.074602 0.399874 0.564731
v 0.016595 0.534841 0.598017
v -0.080977 0.491024 0.565563
v 0.048538 0.374239 0.553800
v -0.000899 0.555898 0.582454
v 0.083483 0.503239 0.559605
v -0.063673 0.373794 0.544490
v -0.102623 0.470880 0.542312
v -0.049753 0.549190 0.559101
v 0.039787 0.551597 0.566570
v -0.034055 0.364403 0.541798
v -0.086205 0.410961 0.553582
v -0.013796 0.565757 0.558274
v 0.064772 0.377193 0.528596
v 0.107565 0.480595 0.526755
v 0.008285 0.603379 0.528845
v -0.070062 0.580333 0.523202
v -0.106756 0.553818 0.514040
v 0.087055 0.407155 0.496736
v -0.086898 0.408380 0.505236
v 0.105013 0.553068 0.515947
v 0.013297 0.350244 0.457777
v 0.082901 0.627460 0.495717
v -0.001205 0.665093 0.486554
v -0.086500 0.625746 0.494015
v -0.109351 0.577238 0.486328
v -0.126894 0.489698 0.464453
v 0.126200 0.471848 0.460883
v 0.131206 0.547989 0.456312
v -0.100864 0.678330 0.439094
v -0.132770 0.603341 0.440951
v -0.026583 0.705752 0.440422
v 0.087773 0.671159 0.456481
v -0.050710 0.356164 0.404839
v -0.079200 0.711167 0.432012
v 0.076492 0.703395 0.442492
v -0.159551 0.687910 0.450457
v 0.155320 0.690159 0.439620
v 0.130291 0.626225 0.422952
v -0.107629 0.711143 0.456457
v -0.073330 0.739978 0.446194
v 0.098309 0.722004 0.455648
v -0.138983 0.470551 0.386935
v 0.110436 0.687849 0.438757
v 0.111735 0.742326 0.409501
v -0.100061 0.698248 0.443176
v -0.194976 0.713105 0.426124
v 0.061807 0.728575 0.421892
v -0.010060 0.344736 0.401341
v 0.157313 0.717429 0.429834
v -0.141139 0.684028 0.435552
v -0.092604 0.763332 0.428592
v 0.064643 0.771277 0.422802
v 0.100908 0.399993 0.397561
v 0.194219 0.704407 0.427167
v -0.145379 0.721184 0.432820
v 0.049006 0.750366 0.397813
v -0.172118 0.681378 0.432549
v 0.123316 0.682487 0.418986
v -0.063982 0.776976 0.419386
v 0.052372 0.352529 0.395400
v -0.133313 0.699587 0.411787
v -0.118417 0.686625 0.404818
v 0.141722 0.749219 0.404803
v 0.121202 0.770091 0.406385
v -0.153433 0.736018 0.407567
v 0.140940 0.467186 0.381928
v -0.137655 0.645465 0.391150
v 0.170695 0.739491 0.409907
v -0.187298 0.702591 0.412157
v 0.168151 0.686621 0.429739
v -0.258160 0.728972 0.407865
v -0.108563 0.791557 0.417034
v -0.058594 0.753780 0.398849
v 0.025247 0.727123 0.401235
v 0.252658 0.724969 0.408021
v -0.177963 0.762612 0.405273
v -0.238203 0.802887 0.405083
v -0.170130 0.807656 0.406608
v -0.108079 0.397263 0.378239
v 0.107171 0.800720 0.401986
v 0.217519 0.802492 0.403992
v 0.241195 0.719225 0.393259
v 0.137245 0.694746 0.417443
v 0.236651 0.769007 0.399421
v -0.238015 0.716931 0.393053
v -0.051002 0.730579 0.398217
v -0.090389 0.796204 0.401304
v 0.065961 0.783088 0.401303
v 0.158794 0.764504 0.405042
v -0.247898 0.762567 0.400807
v -0.132005 0.761479 0.402770
v -0.162840 0.726524 0.388107
v 0.046938 0.762612 0.371542
v -0.267026 0.737644 0.391312
v 0.183693 0.732706 0.378750
v 0.271614 0.770889 0.364401
v -0.281936 0.784398 0.379929
v -0.149600 0.574465 0.376635
v 0.130232 0.704294 0.384068
v -0.064527 0.756634 0.357894
v 0.256896 0.755538 0.373239
v -0.172696 0.764222 0.354867
v -0.004207 0.745621 0.373428
v -0.039357 0.748364 0.379228
v -0.134645 0.709101 0.377477
v -0.116140 0.757829 0.336872
v 0.247310 0.769333 0.369582
v 0.150552 0.579581 0.369669
v -0.235923 0.770648 0.364626
v -0.210322 0.744025 0.370624
v -0.164990 0.523508 0.318215
v 0.195276 0.768155 0.367855
v -0.309149 0.778831 0.346512
v -0.308804 0.784489 0.341260
v -0.254690 0.756076 0.362963
v -0.168633 0.731971 0.357150
v 0.142449 0.399901 0.318382
v 0.164605 0.730798 0.347224
v 0.123260 0.754245 0.333149
v 0.177949 0.749898 0.353460
v 0.163940 0.508633 0.322058
v -0.176798 0.618120 0.282988
v -0.268201 0.761616 0.343326
v 0.084863 0.334081 0.329110
v -0.173083 0.467316 0.311516
v -0.091004 0.335895 0.323548
v -0.156662 0.691968 0.335040
v -0.026862 0.313216 0.329156
v 0.173353 0.599945 0.298061
v 0.025597 0.303189 0.291234
v 0.156561 0.710951 0.336262
v 0.271349 0.766142 0.352297
v -0.088146 0.734975 0.303014
v -0.302732 0.774189 0.328895
v -0.162889 0.725203 0.331696
v -0.026027 0.748369 0.320923
v -0.153454 0.408637 0.308062
v 0.053828 0.741971 0.324646
v -0.136099 0.706791 0.293437
v 0.091105 0.720900 0.281220
v 0.157948 0.672750 0.322335
v 0.192255 0.467424 0.285417
v 0.152554 0.698251 0.309495
v 0.107004 0.331166 0.281276
v -0.103297 0.312722 0.244582
v -0.059940 0.301669 0.243171
v -0.011670 0.769853 0.257660
v -0.125499 0.347113 0.279494
v 0.201531 0.431221 0.258196
v -0.229962 0.515964 0.218603
v -0.101810 0.722787 0.257341
v -0.192466 0.410465 0.265514
v -0.163904 0.669533 0.299065
v 0.062798 0.749487 0.255981
v -0.165346 0.656847 0.254635
v 0.174875 0.336243 0.230026
v 0.057954 0.301758 0.235636
v 0.121034 0.314665 0.241900
v -0.173001 0.339475 0.235536
v 0.215462 0.522553 0.239294
v 0.127027 0.015489 0.262842
v 0.088586 0.025676 0.255130
v 0.149331 0.677697 0.249396
v 0.192989 0.628242 0.229784
v -0.125275 0.029142 0.256522
v -0.094018 0.013287 0.252199
v 0.080215 0.012703 0.240325
v 0.142809 0.013305 0.243063
v 0.128175 0.112411 0.234682
v -0.141036 0.014210 0.247336
v -0.227371 0.437565 0.210727
v -0.078370 0.017786 0.238173
v -0.081360 0.063082 0.237621
v 0.140110 0.121130 0.222265
v -0.181200 0.319146 0.217333
v 0.091058 0.283286 0.232980
v 0.199110 0.365413 0.213241
v -0.147514 0.017959 0.226259
v -0.129526 0.125292 0.224827
v 0.088964 0.132432 0.221914
v -0.089927 0.126577 0.221298
v 0.099858 0.004016 0.226554
v 0.130999 0.190256 0.224690
v -0.228657 0.601011 0.154563
v -0.074207 0.282282 0.219495
v -0.196112 0.641234 0.208249
v -0.141072 0.215130 0.219791
v -0.074994 0.764678 0.225005
v -0.028163 0.796408 0.199290
v 0.089299 0.212684 0.219660
v -0.100320 0.198017 0.220417
v -0.038944 0.296137 0.174456
v -0.107637 0.006343 0.215319
v 0.129797 0.013950 0.203298
v 0.084189 0.017907 0.214151
v 0.151054 0.741247 0.153537
v -0.133630 0.015478 0.203072
v 0.064977 0.281590 0.195454
v 0.140379 0.119323 0.171707
v 0.050240 0.805629 0.169300
v 0.158027 0.206305 0.205171
v -0.135939 0.746089 0.175710
v -0.082516 0.214075 0.197796
v -0.143762 0.127496 0.202874
v 0.084197 0.103240 0.207139
v -0.085241 0.020513 0.213178
v 0.028553 0.301072 0.171098
v 0.242114 0.567635 0.133184
v -0.083717 0.104833 0.203431
v -0.157068 0.706172 0.188863
v 0.246353 0.475383 0.149336
v 0.183030 0.292036 0.172762
v 0.078238 0.226461 0.179748
v -0.249349 0.481006 0.135614
v -0.065855 0.274087 0.175099
v -0.135600 0.102612 0.178993
v 0.096564 0.111544 0.182029
v -0.097367 0.126044 0.173658
v 0.139214 0.084331 0.182240
v 0.166892 0.702267 0.174928
v -0.178195 0.278235 0.172741
v -0.060791 0.812758 0.139756
v 0.220121 0.643913 0.121247
v 0.229127 0.393933 0.135563
v -0.230716 0.400167 0.143130
v -0.247638 0.540063 0.129253
v -0.089633 0.229162 0.150159
v -0.030509 0.290129 0.129265
v 0.097079 0.227439 0.140756
v -0.133354 0.126370 0.166617
v 0.161225 0.257739 0.134139
v -0.169493 0.276154 0.130842
v 0.012349 0.839871 0.075439
v -0.174148 0.735550 0.097793
v -0.150207 0.202585 0.149724
v 0.048586 0.288061 0.115485
v -0.071857 0.284669 0.119184
v 0.134749 0.195977 0.142033
v -0.116691 0.208083 0.139581
v -0.210654 0.679025 0.087768
v 0.074271 0.271114 0.132350
v 0.209070 0.705205 0.039758
v 0.118378 0.284185 0.106096
v -0.194893 0.324465 0.104162
v -0.249324 0.579237 0.058981
v -0.102634 0.291554 0.099871
v -0.018582 0.265568 0.055602
v 0.081882 0.293331 0.082825
v 0.080752 0.827155 0.053049
v 0.249234 0.521286 0.083780
v -0.094050 0.296015 0.082881
v 0.190359 0.327131 0.101914
v -0.253486 0.529646 0.047473
v -0.252046 0.475962 0.028752
v 0.119693 0.810735 0.015288
v 0.252719 0.562787 0.039380
v -0.110297 0.815044 0.026815
v 0.148698 0.309530 0.067320
v -0.224883 0.390061 0.037251
v 0.169035 0.774827 -0.007016
v -0.183764 0.330606 0.067128
v 0.047720 0.267756 0.040854
v 0.252903 0.470415 0.006312
v 0.243128 0.632019 0.037593
v 0.210259 0.360524 0.036370
v -0.045413 0.847872 -0.055703
v -0.109890 0.279582 0.016627
v -0.170311 0.773143 -0.007906
v -0.222041 0.715996 -0.032463
v 0.172280 0.312605 0.021287
v -0.176200 0.304812 -0.039564
v 0.118301 0.279914 0.022167
v 0.241529 0.395560 -0.069123
v 0.234180 0.701131 -0.058179
v 0.077752 0.839359 -0.090013
v 0.222720 0.360614 -0.027976
v -0.215467 0.349801 -0.034102
v 0.257233 0.594471 -0.042910
v -0.245436 0.640155 0.016451
v 0.195112 0.317627 -0.065336
v -0.026011 0.254962 -0.072964
v 0.037007 0.256396 -0.062123
v 0.121941 0.271864 -0.071945
v 0.014788 0.852279 -0.069167
v -0.120145 0.273133 -0.105785
v -0.111966 0.821779 -0.116236
v -0.257453 0.572464 -0.036429
v -0.253743 0.436418 -0.103795
v 0.264748 0.534935 -0.129934
v -0.173920 0.775401 -0.166869
v 0.256395 0.447606 -0.113745
v 0.157200 0.291292 -0.148450
v 0.164859 0.786185 -0.117463
v -0.192041 0.321295 -0.152879
v -0.248949 0.662669 -0.106818
v -0.263685 0.519248 -0.115295
v -0.234492 0.395416 -0.188277
v 0.257819 0.636297 -0.143092
v -0.212851 0.731155 -0.135202
v 0.220754 0.719093 -0.188688
v 0.232687 0.380838 -0.159168
v -0.262200 0.599731 -0.147666
v 0.105365 0.270154 -0.162621
v -0.002772 0.256927 -0.166752
v -0.069267 0.842275 -0.260662
v -0.244964 0.667850 -0.227187
v -0.134415 0.809913 -0.247755
v 0.123747 0.818167 -0.193508
v 0.186693 0.334151 -0.251334
v 0.218511 0.383766 -0.257572
v -0.183695 0.330657 -0.236765
v 0.011671 0.855780 -0.186283
v -0.107276 0.286836 -0.240105
v 0.248832 0.446676 -0.221709
v 0.260557 0.582357 -0.225766
v -0.209184 0.738053 -0.243981
v 0.248119 0.662204 -0.231478
v -0.259779 0.572978 -0.219685
v -0.177203 0.772687 -0.304895
v -0.256032 0.485161 -0.219697
v 0.167289 0.784843 -0.292866
v 0.060634 0.282835 -0.257768
v 0.121520 0.287418 -0.235376
v -0.011424 0.277210 -0.258850
v 0.082574 0.838556 -0.262561
v 0.257558 0.624036 -0.298296
v -0.161639 0.336431 -0.308888
v 0.256349 0.567464 -0.349581
v -0.258420 0.611511 -0.286353
v -0.231993 0.445007 -0.334782
v 0.223252 0.715322 -0.327063
v 0.132633 0.326363 -0.328821
v -0.256447 0.548596 -0.327345
v 0.248219 0.501532 -0.355013
v -0.220724 0.717671 -0.338459
v -0.102001 0.337251 -0.371939
v 0.005958 0.839644 -0.364606
v 0.221092 0.432881 -0.369276
v -0.001172 0.305492 -0.332978
v -0.246583 0.653715 -0.343561
v 0.106052 0.811380 -0.375388
v 0.172969 0.368728 -0.358259
v -0.196096 0.392858 -0.358783
v 0.238562 0.649266 -0.422384
v -0.118790 0.793878 -0.410554
v -0.157705 0.360666 -0.386176
v 0.048237 0.332513 -0.402110
v -0.256384 0.577177 -0.415097
v 0.159488 0.363414 -0.388228
v 0.255798 0.551868 -0.417338
v -0.026284 0.325527 -0.389118
v -0.193105 0.364062 -0.400003
v -0.080724 0.803423 -0.433653
v -0.211374 0.386980 -0.404482
v -0.233128 0.645806 -0.450216
v -0.244599 0.485559 -0.437778
v 0.060455 0.806515 -0.443532
v -0.047686 0.351002 -0.443118
v 0.101123 0.337456 -0.421342
v 0.198411 0.350734 -0.420294
v -0.111267 0.314201 -0.435453
v 0.199810 0.715250 -0.440000
v 0.138169 0.775964 -0.434760
v -0.185545 0.716857 -0.467778
v -0.163359 0.325385 -0.419319
v 0.064918 0.345706 -0.445481
v 0.157946 0.277221 -0.446397
v 0.236406 0.476308 -0.465754
v 0.082914 0.318245 -0.455766
v 0.128577 0.314497 -0.430767
v 0.238512 0.567366 -0.490402
v -0.003515 0.810877 -0.448864
v -0.236440 0.592550 -0.491629
v -0.171149 0.281202 -0.453415
v 0.021605 0.367039 -0.464484
v -0.069018 0.310123 -0.471358
v 0.170379 0.270635 -0.472285
v 0.155987 0.734550 -0.492591
v -0.160220 0.237770 -0.468319
v 0.095971 0.224425 -0.485179
v -0.177006 0.310447 -0.488317
v 0.127616 0.008109 -0.459093
v -0.087356 0.222506 -0.491078
v -0.117089 0.213984 -0.475331
v 0.093795 0.015040 -0.466567
v -0.119372 0.009631 -0.459426
v 0.147401 0.192145 -0.476881
v -0.134373 0.097967 -0.480783
v -0.081843 0.012496 -0.481357
v 0.192436 0.659308 -0.533555
v 0.186847 0.343711 -0.484694
v 0.127603 0.082024 -0.476580
v -0.139535 0.013317 -0.476971
v 0.062996 0.752897 -0.539504
v -0.210825 0.436622 -0.505078
v -0.150204 0.156720 -0.482774
v 0.069434 0.296065 -0.483165
v 0.124639 0.177554 -0.478374
v 0.084396 0.076992 -0.494088
v 0.136446 0.092809 -0.490332
v 0.134238 0.008293 -0.502763
v 0.055464 0.359175 -0.487210
v -0.026269 0.384245 -0.514817
v -0.115160 0.005191 -0.518451
v -0.077088 0.239597 -0.506869
v -0.056961 0.359659 -0.513887
v -0.085620 0.081783 -0.490897
v -0.224893 0.547017 -0.522986
v 0.074924 0.010190 -0.496121
v 0.129965 0.142298 -0.524625
v -0.045606 0.752627 -0.546983
v 0.079771 0.218233 -0.515259
v -0.128874 0.131814 -0.526177
v 0.206477 0.460996 -0.525883
v 0.067939 0.327694 -0.524422
v 0.021667 0.396902 -0.528837
v -0.020162 0.757553 -0.545472
v -0.149253 0.317012 -0.526493
v -0.123191 0.025590 -0.523516
v 0.124796 0.021658 -0.522529
v 0.164697 0.345266 -0.518915
v 0.086438 0.104107 -0.526833
v -0.076693 0.020403 -0.517155
v 0.079006 0.009683 -0.516861
v -0.081552 0.236842 -0.529876
v -0.171968 0.414800 -0.533866
v -0.074444 0.332195 -0.533164
v 0.062038 0.374437 -0.536458
v -0.180433 0.660704 -0.546896
v -0.140440 0.220066 -0.541610
v -0.110288 0.734289 -0.538358
v 0.092873 0.211109 -0.540981
v 0.148059 0.228942 -0.532234
v 0.156016 0.673441 -0.560607
v 0.155477 0.411186 -0.539803
v -0.067750 0.376536 -0.543109
v -0.086605 0.143528 -0.529063
v 0.125311 0.222116 -0.546041
v -0.109089 0.383373 -0.541119
v -0.101410 0.220394 -0.546336
v 0.201902 0.552048 -0.553233
v 0.113160 0.325814 -0.535090
v 0.095992 0.403637 -0.556891
v -0.034723 0.449962 -0.589927
v 0.165633 0.495396 -0.575122
v -0.130881 0.691550 -0.564643
v 0.029768 0.754889 -0.571537
v -0.181553 0.497335 -0.564480
v 0.033737 0.433329 -0.579435
v -0.190332 0.563246 -0.564022
v -0.012266 0.721012 -0.574291
v -0.106853 0.452762 -0.585262
v -0.044758 0.679883 -0.595303
v 0.035608 0.721864 -0.573881
v 0.003151 0.766336 -0.593926
v -0.126063 0.618819 -0.598009
v 0.149675 0.595279 -0.590037
v -0.020795 0.748701 -0.589336
v 0.000847 0.736941 -0.610903
v -0.129062 0.524023 -0.599237
v 0.081147 0.464865 -0.597403
v 0.068046 0.656429 -0.602533
v 0.113164 0.514935 -0.603873
v 0.017192 0.742443 -0.615183
v 0.083714 0.594206 -0.616841
v -0.014414 0.746597 -0.631985
v -0.004246 0.610205 -0.623985
v 0.012697 0.540716 -0.620597
v -0.047946 0.588890 -0.623189
v 0.016406 0.741528 -0.636504
v -0.063389 0.517015 -0.613078
v -0.008833 0.685663 -0.650366
v 0.011698 0.698742 -0.645771
v 0.016907 0.620636 -0.653364
v -0.006841 0.678982 -0.666156
v -0.010583 0.625761 -0.661624
v 0.004636 0.615245 -0.652001
v 0.018243 0.632075 -0.667655
vn -0.2067 0.2455 -0.9471
vn 0.8926 0.4464 0.0635
vn 0.4941 -0.0103 -0.8693
vn 0.6869 -0.6591 -0.3062
vn 0.4626 0.2165 0.8597
vn 0.7600 -0.3469 0.5496
vn 0.2362 0.8774 0.4176
vn 0.3690 -0.7928 -0.4851
vn 0.2164 0.5215 0.8253
vn 0.4355 -0.2493 0.8650
vn 0.9782 -0.0793 0.1917
vn 0.9375 -0.3318 0.1055
vn 0.9861 -0.1546 0.0610
vn 0.8415 -0.5358 0.0689
vn 0.7735 -0.2552 -0.5801
vn 0.9239 0.0782 -0.3746
vn 0.9470 -0.2263 -0.2281
vn 0.0596 0.4354 0.8983
vn 0.7422 0.0131 -0.6700
vn 0.8727 -0.4788 -0.0955
vn 0.7107 -0.7028 0.0324
vn 0.8653 -0.4744 -0.1619
vn -0.0015 0.0451 0.9990
vn 0.9315 0.3049 -0.1984
vn 0.7541 0.3626 -0.5476
vn 0.7725 0.5767 -0.2659
vn 0.5590 0.6921 -0.4567
vn 0.1227 0.0899 0.9884
vn 0.8707 -0.4801 0.1066
vn 0.6337 -0.7492 0.1926
vn 0.4038 -0.4420 0.8010
vn 0.7629 -0.5221 0.3813
vn -0.1681 -0.5044 0.8469
vn 0.9377 -0.3272 0.1170
vn 0.2241 0.3298 -0.9171
vn -0.0388 0.9588 0.2813
vn 0.5241 0.7933 -0.3098
vn 0.6253 -0.1567 -0.7645
vn 0.0329 -0.0606 -0.9976
vn 0.3924 -0.2852 -0.8745
vn 0.9931 -0.0609 0.1004
vn 0.7075 -0.6718 -0.2193
vn 0.4821 -0.3285 -0.8122
vn 0.2886 -0.4718 0.8331
vn -0.7769 -0.5681 0.2715
vn 0.7708 -0.5816 0.2599
vn -0.1515 -0.9874 -0.0453
vn 0.3562 -0.6446 -0.6764
vn -0.4675 0.4740 0.7462
vn 0.2995 -0.1710 -0.9386
vn 0.2136 0.1219 -0.9693
vn 0.5082 0.1434 -0.8492
vn 0.2041 0.3720 -0.9055
vn 0.4247 0.2126 -0.8800
vn 0.5148 0.4525 -0.7282
vn 0.2118 -0.0527 -0.9759
vn -0.5446 -0.0576 -0.8367
vn 0.6867 0.6502 0.3250
vn 0.3985 0.8997 0.1781
vn 0.2986 0.8811 0.3667
vn 0.5539 0.8208 0.1394
vn -0.7549 -0.1799 -0.6308
vn -0.4695 -0.5466 -0.6934
vn -0.7723 -0.5831 0.2522
vn -0.9664 -0.2278 -0.1188
vn -0.6736 -0.1163 0.7299
vn 0.6204 -0.7717 0.1404
vn 0.4105 -0.8648 0.2892
vn 0.8666 -0.4814 0.1313
vn -0.5734 -0.6822 -0.4537
vn 0.1053 -0.9937 0.0384
vn -0.0276 -0.9918 -0.1245
vn 0.2541 -0.9608 -0.1112
vn 0.1290 -0.9461 -0.2972
vn -0.2358 -0.8118 -0.5342
vn -0.0731 -0.5772 -0.8133
vn 0.1689 -0.9673 0.1894
vn -0.0741 -0.9957 0.0548
vn -0.0810 -0.9732 0.2152
vn 0.7333 -0.6799 -0.0014
vn 0.3681 -0.3668 0.8544
vn 0.6467 0.4753 -0.5965
vn 0.6494 -0.2634 -0.7134
vn 0.2150 0.0393 -0.9758
vn -0.1375 0.4356 -0.8896
vn -0.1215 -0.9069 -0.4035
vn 0.3028 -0.8105 -0.5014
vn -0.0958 -0.9357 -0.3395
vn 0.0622 -0.9452 -0.3205
vn -0.0080 -0.9430 -0.3326
vn 0.0315 0.9815 0.1886
vn -0.1484 0.9047 0.3993
vn -0.4723 0.2066 -0.8569
vn -0.8049 0.4309 -0.4080
vn -0.3373 0.8976 0.2840
vn -0.8129 -0.5295 -0.2425
vn -0.7970 -0.2059 0.5678
vn -0.0935 0.9556 -0.2794
vn -0.3015 0.8906 -0.3404
vn -0.0348 0.9170 -0.3973
vn -0.0995 -0.9948 0.0223
vn -0.3353 -0.9247 0.1804
vn -0.3111 0.7173 -0.6234
vn -0.4963 0.8297 -0.2555
vn -0.2929 0.9527 -0.0808
vn -0.8753 -0.4735 0.0982
vn -0.4594 -0.8488 0.2618
vn -0.5871 -0.7699 0.2501
vn 0.6298 -0.5229 0.5744
vn 0.4302 -0.0676 0.9002
vn 0.9670 -0.1684 0.1913
vn 0.8596 -0.0952 -0.5021
vn 0.6735 -0.1038 -0.7319
vn 0.2304 -0.0492 -0.9719
vn 0.6986 0.2114 0.6835
vn -0.2284 0.0164 0.9734
vn 0.7653 0.1765 0.6190
vn 0.1422 -0.9130 -0.3823
vn -0.3696 -0.6039 -0.7062
vn 0.6728 -0.4416 -0.5936
vn -0.1935 -0.7784 -0.5973
vn 0.7312 -0.5258 0.4346
vn -0.0988 -0.5230 0.8466
vn -0.5353 -0.2089 -0.8184
vn 0.7601 -0.3851 -0.5234
vn -0.5633 -0.2640 -0.7829
vn -0.4731 -0.3734 -0.7979
vn 0.5432 -0.2816 -0.7910
vn 0.3337 0.9397 -0.0754
vn -0.0413 0.9760 0.2136
vn -0.0311 0.5249 0.8506
vn -0.2605 0.0539 0.9640
vn -0.0018 0.0541 0.9985
vn -0.6723 0.7333 -0.1019
vn -0.5500 0.8341 -0.0429
vn -0.5115 -0.4477 0.7334
vn -0.3017 -0.1486 0.9418
vn -0.2213 -0.6532 0.7241
vn -0.2263 0.8269 0.5148
vn -0.2431 -0.4041 -0.8818
vn -0.6138 -0.2219 -0.7576
vn -0.3749 -0.1236 -0.9188
vn -0.2610 0.5058 -0.8222
vn -0.6844 0.7289 0.0190
vn -0.9851 -0.0838 0.1500
vn -0.9516 -0.3075 -0.0000
vn -0.6770 -0.3469 -0.6491
vn -0.4130 -0.8634 0.2897
vn -0.7507 -0.6554 0.0835
vn -0.5775 -0.6209 0.5300
vn 0.2457 0.5184 -0.8191
vn -0.9097 0.1599 -0.3833
vn -0.8968 0.3587 -0.2588
vn -0.6826 0.4031 -0.6096
vn -0.3557 0.1249 0.9262
vn -0.4629 -0.1492 0.8738
vn -0.6801 -0.3861 0.6232
vn -0.9431 -0.3173 0.0989
vn -0.9871 -0.1545 0.0411
vn -0.9211 -0.3887 0.0233
vn -0.9639 -0.2661 0.0114
vn -0.9844 -0.1594 -0.0745
vn -0.9029 -0.4158 -0.1093
vn -0.9203 -0.3906 0.0216
vn -0.8008 0.1434 0.5815
vn -0.3203 -0.2093 -0.9239
vn -0.6558 0.6821 -0.3236
vn -0.8978 -0.3269 0.2950
vn -0.4162 -0.8545 -0.3108
vn 0.9989 -0.0005 -0.0461
vn 0.9937 -0.0172 -0.1110
vn 0.9732 -0.2254 -0.0454
vn 0.9842 0.1695 -0.0522
vn 0.9492 0.3144 -0.0120
vn 0.9993 0.0272 -0.0272
vn 0.9660 -0.2408 -0.0945
vn 0.7527 -0.6231 -0.2126
vn 0.8640 -0.0807 0.4970
vn 0.8593 -0.2300 0.4569
vn 0.9174 0.0804 0.3898
vn 0.6585 0.7485 -0.0785
vn 0.8517 0.5175 -0.0830
vn 0.8829 0.3961 0.2520
vn 0.8376 0.5062 0.2051
vn 0.8019 0.5110 0.3095
vn 0.5486 -0.8323 -0.0789
vn 0.6909 -0.6931 -0.2055
vn 0.9106 -0.2578 -0.3230
vn 0.5255 -0.2399 -0.8163
vn 0.9206 -0.2244 0.3197
vn 0.8978 0.0704 0.4347
vn 0.9120 -0.2071 0.3541
vn 0.7115 -0.4055 -0.5739
vn 0.9397 -0.3349 0.0696
vn 0.0854 -0.7286 -0.6796
vn 0.3462 -0.9141 0.2111
vn 0.4835 -0.8753 0.0098
vn 0.4738 -0.8443 0.2501
vn 0.7064 -0.6620 -0.2507
vn 0.3764 -0.8649 -0.3319
vn -0.1371 -0.8640 0.4845
vn 0.4192 -0.5226 0.7424
vn 0.9425 0.0985 0.3193
vn 0.9414 -0.2363 0.2406
vn 0.6905 -0.1782 -0.7011
vn 0.7870 -0.1355 -0.6019
vn 0.3418 -0.9078 -0.2432
vn 0.9180 -0.0906 0.3862
vn 0.4550 0.8322 0.3169
vn 0.7321 0.6671 0.1374
vn 0.3391 0.9371 -0.0824
vn 0.5257 0.8507 0.0017
vn 0.1528 -0.6431 0.7504
vn -0.0469 0.2526 0.9664
vn 0.3862 -0.2724 0.8813
vn 0.3258 -0.8921 -0.3130
vn 0.8965 -0.2160 0.3869
vn 0.8749 -0.4813 0.0539
vn 0.0134 0.2786 0.9603
vn 0.5025 0.8485 -0.1659
vn -0.9895 0.0037 -0.1446
vn -0.5918 -0.2380 -0.7702
vn -0.6836 -0.4517 -0.5733
vn -0.0667 -0.9411 0.3315
vn -0.3460 -0.3154 0.8836
vn 0.4059 0.6988 0.5891
vn 0.7560 0.3181 0.5721
vn 0.0427 0.5905 0.8059
vn 0.1845 -0.9825 0.0272
vn 0.7174 0.6065 0.3428
vn 0.1197 0.8191 0.5611
vn -0.0436 -0.9655 0.2568
vn 0.1261 -0.9706 0.2052
vn -0.0057 0.8094 0.5872
vn -0.0136 0.6337 0.7735
vn -0.1369 0.3778 0.9157
vn 0.1135 -0.9839 0.1383
vn -0.0960 0.9952 0.0190
vn 0.1131 0.9714 -0.2088
vn -0.0790 0.9207 0.3823
vn 0.0022 0.9888 -0.1493
vn -0.3184 -0.9423 0.1036
vn -0.9280 0.1202 -0.3527
vn 0.0257 -0.4979 -0.8669
vn -0.1204 -0.2278 -0.9662
vn 0.0303 -0.1567 -0.9872
vn 0.2787 -0.4926 -0.8244
vn 0.8017 -0.4874 -0.3460
vn 0.2789 -0.9548 0.1026
vn 0.3839 -0.8260 -0.4127
vn 0.0131 -0.9852 0.1709
vn 0.2760 0.9222 -0.2709
vn 0.6955 0.5700 0.4375
vn 0.9163 0.3064 0.2578
vn 0.5240 0.1035 0.8454
vn 0.8502 -0.3838 0.3604
vn 0.9833 -0.1650 0.0772
vn -0.8415 -0.3921 0.3716
vn -0.8836 -0.3690 0.2883
vn -0.2853 -0.8571 0.4289
vn -0.5253 -0.5735 0.6286
vn 0.7119 -0.1306 0.6900
vn 0.3363 -0.5572 0.7592
vn 0.8449 -0.4707 0.2543
vn -0.4033 0.6987 -0.5909
vn -0.3540 -0.0226 -0.9350
vn 0.1512 -0.3543 -0.9228
vn 0.7956 -0.3367 -0.5037
vn -0.1926 -0.9745 -0.1154
vn 0.2747 -0.6671 0.6925
vn 0.3571 -0.9152 -0.1870
vn 0.2536 -0.1917 0.9481
vn -0.8481 -0.1991 0.4910
vn -0.6844 0.0067 0.7291
vn -0.5804 -0.6534 0.4860
vn -0.2423 -0.3638 0.8994
vn 0.2070 -0.9777 -0.0352
vn 0.2703 -0.5817 0.7672
vn -0.9287 -0.2366 0.2857
vn -0.9637 0.0180 0.2665
vn -0.9097 0.0299 0.4141
vn -0.7603 0.5992 0.2509
vn -0.7624 0.5474 0.3450
vn -0.6685 0.6556 0.3510
vn -0.9255 0.0728 0.3717
vn -0.8565 -0.1174 0.5026
vn -0.7495 -0.6075 -0.2630
vn -0.9282 -0.2774 0.2481
vn -0.8385 -0.2837 -0.4652
vn -0.8701 -0.0191 -0.4925
vn -0.8531 -0.5177 0.0645
vn -0.6958 -0.7113 -0.0991
vn 0.1190 -0.5626 -0.8181
vn -0.0692 -0.5670 -0.8208
vn -0.9887 -0.0885 0.1212
vn -0.9804 0.1200 0.1562
vn -0.9989 0.0080 0.0466
vn 0.9290 -0.3668 0.0483
vn 0.8807 -0.4679 0.0742
vn 0.8367 0.4150 -0.3574
vn 0.9713 0.1529 0.1820
vn 0.2829 0.1122 0.9526
vn 0.6752 -0.2636 0.6889
vn -0.1911 0.0097 0.9815
vn 0.3609 0.9315 0.0459
vn 0.6673 0.7440 0.0334
vn 0.3211 0.7538 -0.5734
vn 0.2317 0.8944 -0.3826
vn 0.4112 0.8892 -0.2007
vn -0.6796 -0.4226 0.5996
vn -0.6203 -0.2187 0.7532
vn -0.5171 -0.3376 0.7865
vn -0.7893 -0.5914 0.1654
vn -0.6962 0.1218 0.7075
vn -0.5511 -0.1004 0.8284
vn -0.9227 -0.2189 0.3174
vn -0.9939 -0.1102 -0.0054
vn 0.4771 0.4088 0.7780
vn 0.5192 0.4500 0.7266
vn -0.3286 0.9369 -0.1196
vn -0.5771 0.8130 0.0780
vn -0.6873 0.4984 0.5284
vn -0.2036 0.7336 0.6484
vn -0.6012 0.2585 0.7561
vn 0.1358 0.9728 0.1876
vn 0.1481 -0.3874 -0.9099
vn -0.1357 0.0450 -0.9897
vn -0.1192 -0.9233 0.3651
vn 0.3901 0.6171 0.6834
vn -0.5053 0.4653 0.7268
vn -0.5291 -0.1293 0.8386
vn 0.0552 0.7746 0.6300
vn -0.6450 0.4611 0.6094
vn -0.2280 0.9719 0.0577
vn -0.3784 0.4880 0.7865
vn 0.0069 0.9793 -0.2022
vn -0.2548 -0.9667 0.0258
vn -0.8174 0.2277 0.5292
vn -0.5973 0.7672 0.2339
vn -0.5008 0.6155 0.6085
vn -0.9447 0.1518 0.2905
vn -0.1259 -0.9383 0.3220
vn -0.5435 -0.7416 0.3934
vn -0.2066 0.4681 0.8592
vn 0.4523 0.2097 0.8669
vn -0.6323 -0.5469 0.5488
vn 0.0848 0.0584 0.9947
vn -0.4323 0.1519 0.8889
vn -0.4125 0.5159 -0.7508
vn -0.3841 0.2089 -0.8994
vn -0.6836 -0.7064 -0.1836
vn -0.3110 -0.9210 -0.2345
vn -0.3491 -0.9362 -0.0401
vn -0.4388 -0.8986 0.0017
vn -0.3490 -0.8523 -0.3896
vn -0.2671 -0.9136 -0.3066
vn -0.0892 -0.5990 0.7958
vn -0.8717 -0.3688 0.3227
vn -0.6219 -0.3371 0.7068
vn -0.8182 0.5749 -0.0037
vn -0.9258 -0.2167 -0.3097
vn -0.5348 -0.3118 -0.7853
vn -0.9045 0.0467 -0.4240
vn -0.7951 -0.5776 -0.1850
vn -0.9359 -0.1101 0.3346
vn -0.6651 0.0638 -0.7440
vn -0.9451 0.3265 -0.0132
vn -0.9517 0.3058 0.0262
vn -0.8181 0.5749 0.0125
vn -0.8335 0.5399 -0.1174
vn -0.9578 0.2747 -0.0843
vn -0.9953 0.0672 0.0693
vn -0.9990 -0.0423 0.0128
vn 0.9739 0.2267 0.0103
vn 0.9822 -0.1875 -0.0085
vn 0.8874 0.3594 0.2888
vn 0.1711 0.7340 -0.6573
vn 0.7427 -0.4657 0.4811
vn 0.7683 -0.5724 0.2864
vn 0.5669 -0.2603 -0.7816
vn -0.8377 0.1323 0.5299
vn 0.3595 -0.9322 0.0419
vn 0.4560 -0.7831 0.4229
vn 0.2317 -0.5553 0.7988
vn -0.0399 -0.9570 -0.2873
vn -0.0098 -0.9576 0.2879
vn -0.7783 -0.5318 0.3339
vn 0.7844 0.1039 0.6114
vn -0.0839 -0.7794 -0.6209
vn -0.5655 0.8005 0.1983
vn -0.5976 0.6418 -0.4806
vn -0.0203 0.8074 -0.5896
vn -0.8022 -0.5501 0.2320
vn -0.6009 -0.1594 -0.7833
vn -0.6024 -0.7951 0.0698
vn -0.6021 -0.7959 -0.0635
vn -0.5764 -0.0995 -0.8111
vn -0.8354 -0.3109 0.4532
vn -0.6899 0.7144 0.1175
vn -0.9522 0.2737 0.1357
vn -0.9264 0.2894 0.2408
vn -0.8573 0.4519 0.2465
vn -0.9850 0.1340 0.1082
vn 0.9498 0.2731 0.1529
vn 0.8880 0.4538 0.0749
vn 0.8452 0.5344 0.0014
vn 0.8688 -0.3288 0.3702
vn 0.8003 -0.2771 -0.5317
vn 0.9280 -0.3008 0.2200
vn 0.7018 -0.4117 0.5813
vn 0.2286 -0.9697 0.0868
vn 0.1344 -0.4275 -0.8940
vn 0.8938 0.1620 0.4181
vn 0.2977 0.5081 0.8082
vn 0.0432 0.9988 -0.0223
vn 0.0799 0.9948 0.0626
vn 0.6847 -0.6252 0.3746
vn -0.0957 0.9138 0.3947
vn 0.2946 0.8433 0.4496
vn 0.8388 -0.5444 -0.0064
vn -0.4415 0.7598 0.4772
vn -0.1676 -0.3365 -0.9266
vn 0.4560 -0.1089 -0.8833
vn -0.4949 -0.0651 -0.8665
vn -0.8817 -0.2258 0.4143
vn -0.9000 0.1908 0.3918
vn -0.8799 0.2094 0.4265
vn -0.8408 0.5177 0.1581
vn -0.9340 0.1966 0.2982
vn -0.9069 0.1873 0.3775
vn -0.7358 -0.4039 0.5435
vn -0.7959 -0.2821 0.5357
vn -0.9232 -0.1853 0.3367
vn -0.9302 -0.3639 -0.0476
vn -0.2563 -0.9145 -0.3130
vn 0.9631 0.1739 0.2053
vn 0.7035 0.6990 0.1284
vn 0.3780 -0.6687 -0.6402
vn 0.2779 0.2125 0.9368
vn 0.9107 0.0163 0.4127
vn 0.7914 0.3066 0.5289
vn 0.4569 -0.5064 0.7313
vn 0.0335 -0.5489 0.8352
vn 0.4951 -0.7292 0.4724
vn 0.5766 0.7828 -0.2341
vn -0.8072 0.2766 0.5215
vn -0.9423 0.3167 -0.1086
vn -0.8506 0.5150 0.1060
vn 0.9319 0.0967 0.3496
vn 0.8711 -0.2011 -0.4481
vn 0.1102 -0.3464 -0.9316
vn -0.5758 -0.3940 -0.7164
vn -0.7543 -0.6344 -0.1692
vn -0.4791 -0.8745 -0.0759
vn -0.1265 -0.9568 0.2618
vn 0.9885 0.0140 -0.1505
vn -0.1808 0.9166 -0.3567
vn -0.4889 0.8580 0.1575
vn -0.5024 0.8642 0.0270
vn -0.9562 -0.1408 0.2568
vn -0.5368 -0.7906 -0.2947
vn -0.7026 0.6226 -0.3446
vn -0.8473 0.4324 0.3085
vn -0.9937 0.1115 -0.0098
vn -0.9987 0.0411 -0.0317
vn 0.9968 0.0221 0.0770
vn 0.9949 0.0617 0.0802
vn 0.6396 -0.0528 -0.7669
vn 0.9594 0.0196 0.2812
vn 0.2445 -0.0385 0.9689
vn -0.5590 -0.5947 -0.5777
vn 0.5070 -0.7822 0.3622
vn 0.3215 -0.9039 0.2822
vn 0.8405 -0.4809 0.2497
vn -0.1639 -0.9819 0.0949
vn -0.3328 0.6407 0.6919
vn -0.8392 -0.4803 0.2550
vn -0.9968 -0.0709 -0.0376
vn -0.9670 -0.1994 -0.1587
vn -0.9922 0.1198 -0.0341
vn 0.9997 -0.0230 -0.0070
vn 0.9909 0.1124 0.0740
vn -0.6482 -0.0503 -0.7598
vn 0.0217 0.8165 0.5769
vn -0.1530 0.7694 0.6201
vn 0.6170 0.2026 0.7604
vn -0.9037 -0.0621 0.4236
vn 0.9091 -0.0744 0.4098
vn 0.9219 0.0642 0.3822
vn 0.4542 -0.2160 0.8643
vn -0.3176 0.8114 0.4906
vn -0.7253 0.2871 0.6257
vn -0.1398 0.5344 0.8336
vn -0.3079 -0.8559 -0.4156
vn -0.8817 -0.4530 0.1320
vn -0.9908 0.0593 -0.1214
vn -0.8644 -0.4988 -0.0641
vt 0.616212 0.001516
vt 0.601751 0.006480
vt 0.598838 0.001516
vt 0.848380 0.007605
vt 0.853495 0.001513
vt 0.864492 0.009363
vt 0.883784 0.001513
vt 0.572092 0.398974
vt 0.563178 0.383531
vt 0.588402 0.375536
vt 0.805926 0.260129
vt 0.779094 0.273232
vt 0.784460 0.254380
vt 0.593596 0.383895
vt 0.781729 0.448835
vt 0.813671 0.420026
vt 0.811092 0.434745
vt 0.066391 0.333242
vt 0.059719 0.310128
vt 0.071005 0.274470
vt 0.431577 0.151749
vt 0.422605 0.202439
vt 0.343641 0.153278
vt 0.361656 0.223189
vt 0.017457 0.157582
vt 0.039787 0.090961
vt 0.054112 0.146938
vt 0.492041 0.030919
vt 0.453404 0.010430
vt 0.504383 0.007627
vt 0.001562 0.101979
vt 0.974329 0.841391
vt 0.997845 0.783547
vt 0.997848 0.889807
vt 0.444681 0.023456
vt 0.478000 0.049928
vt 0.879124 0.791539
vt 0.950515 0.811454
vt 0.889598 0.834798
vt 0.925091 0.860255
vt 0.421353 0.024189
vt 0.909862 0.103332
vt 0.940982 0.126545
vt 0.900706 0.155633
vt 0.935363 0.062502
vt 0.910317 0.014860
vt 0.953325 0.037752
vt 0.087721 0.296224
vt 0.074641 0.283778
vt 0.131767 0.268471
vt 0.807354 0.466495
vt 0.773010 0.516051
vt 0.889788 0.887855
vt 0.011963 0.906231
vt 0.005699 0.871715
vt 0.054263 0.903065
vt 0.410944 0.040433
vt 0.036841 0.387028
vt 0.028464 0.438722
vt 0.016578 0.430950
vt 0.480603 0.235990
vt 0.455702 0.254969
vt 0.474854 0.221777
vt 0.225817 0.219734
vt 0.237269 0.211996
vt 0.256767 0.228027
vt 0.651553 0.642904
vt 0.624313 0.642058
vt 0.637088 0.622200
vt 0.386194 0.023396
vt 0.128958 0.876617
vt 0.177004 0.864107
vt 0.170135 0.907237
vt 0.452528 0.511825
vt 0.437273 0.466130
vt 0.508211 0.498015
vt 0.073119 0.968986
vt 0.073813 0.989546
vt 0.011562 0.963150
vt 0.540254 0.897978
vt 0.602642 0.959658
vt 0.538920 0.971355
vt 0.621389 0.933039
vt 0.921836 0.477692
vt 0.907168 0.452297
vt 0.943110 0.465518
vt 0.291993 0.270077
vt 0.326220 0.276084
vt 0.323096 0.302098
vt 0.198743 0.967142
vt 0.263016 0.919308
vt 0.222272 0.980078
vt 0.313902 0.237999
vt 0.657437 0.388041
vt 0.654674 0.455404
vt 0.594545 0.429120
vt 0.596820 0.493902
vt 0.981076 0.428430
vt 0.962015 0.461432
vt 0.956839 0.417902
vt 0.676173 0.329940
vt 0.693601 0.290948
vt 0.717184 0.337224
vt 0.796462 0.414173
vt 0.812915 0.385672
vt 0.809447 0.412484
vt 0.998440 0.215711
vt 0.998440 0.285607
vt 0.995066 0.258823
vt 0.405126 0.538308
vt 0.385195 0.489698
vt 0.568704 0.627822
vt 0.583542 0.669118
vt 0.553040 0.667068
vt 0.614079 0.592388
vt 0.568832 0.582775
vt 0.613508 0.552927
vt 0.557540 0.726214
vt 0.491576 0.778636
vt 0.491983 0.726793
vt 0.514976 0.196587
vt 0.494559 0.238511
vt 0.480523 0.225209
vt 0.516073 0.165579
vt 0.533886 0.783614
vt 0.750978 0.138677
vt 0.718122 0.139004
vt 0.754129 0.128741
vt 0.405980 0.435778
vt 0.374227 0.379815
vt 0.421493 0.384110
vt 0.690421 0.408793
vt 0.759304 0.382137
vt 0.390110 0.437286
vt 0.838980 0.676375
vt 0.833155 0.703727
vt 0.753686 0.702751
vt 0.894714 0.239475
vt 0.828494 0.254145
vt 0.900543 0.207586
vt 0.996494 0.192091
vt 0.993051 0.245026
vt 0.979852 0.233069
vt 0.812001 0.742619
vt 0.845365 0.700666
vt 0.828292 0.745367
vt 0.763568 0.039722
vt 0.812993 0.012256
vt 0.798672 0.041154
vt 0.822271 0.799935
vt 0.818936 0.781727
vt 0.837310 0.805961
vt 0.783358 0.185725
vt 0.757900 0.171339
vt 0.775632 0.151328
vt 0.226130 0.025210
vt 0.213490 0.029492
vt 0.217418 0.001519
vt 0.863851 0.750048
vt 0.877621 0.741062
vt 0.889308 0.760066
vt 0.792148 0.322751
vt 0.829621 0.354404
vt 0.794316 0.337599
vt 0.945283 0.358682
vt 0.956905 0.336882
vt 0.958904 0.383454
vt 0.785704 0.760836
vt 0.754233 0.745290
vt 0.631260 0.001554
vt 0.708839 0.013721
vt 0.649426 0.042552
vt 0.298384 0.008666
vt 0.262743 0.001518
vt 0.331859 0.001515
vt 0.825578 0.598994
vt 0.872225 0.621806
vt 0.839203 0.643449
vt 0.920831 0.745832
vt 0.967592 0.729351
vt 0.937027 0.778935
vt 0.712705 0.787480
vt 0.493844 0.475541
vt 0.481639 0.458356
vt 0.565399 0.410000
vt 0.536786 0.451895
vt 0.885515 0.768412
vt 0.977101 0.441598
vt 0.995998 0.413852
vt 0.998226 0.437748
vt 0.996633 0.405690
vt 0.900031 0.792184
vt 0.212074 0.281450
vt 0.174400 0.298798
vt 0.177386 0.240538
vt 0.977404 0.422114
vt 0.409325 0.939890
vt 0.433555 0.968332
vt 0.390286 0.968661
vt 0.423170 0.987647
vt 0.238586 0.687658
vt 0.209836 0.608086
vt 0.259173 0.626029
vt 0.251940 0.534443
vt 0.239002 0.458324
vt 0.287614 0.490327
vt 0.435654 0.987950
vt 0.460102 0.972920
vt 0.441565 0.945653
vt 0.322635 0.387833
vt 0.327186 0.397334
vt 0.283505 0.405060
vt 0.484790 0.985407
vt 0.480911 0.987925
vt 0.055521 0.734742
vt 0.070883 0.701695
vt 0.076330 0.720294
vt 0.045819 0.729627
vt 0.595996 0.002682
vt 0.597199 0.007172
vt 0.587659 0.009657
vt 0.082293 0.041430
vt 0.126000 0.090960
vt 0.084268 0.099993
vt 0.122170 0.131696
vt 0.157987 0.056712
vt 0.199482 0.034459
vt 0.202091 0.082582
vt 0.203494 0.166238
vt 0.014753 0.037126
vt 0.401853 0.245283
vt 0.515767 0.160857
vt 0.498600 0.182229
vt 0.487648 0.125435
vt 0.800842 0.884919
vt 0.819299 0.829580
vt 0.557998 0.825638
vt 0.603331 0.850838
vt 0.528427 0.876284
vt 0.206546 0.922638
vt 0.191433 0.947223
vt 0.136079 0.940169
vt 0.877986 0.058612
vt 0.903835 0.001941
vt 0.081376 0.226283
vt 0.049097 0.276481
vt 0.041930 0.230749
vt 0.110199 0.910398
vt 0.575698 0.164772
vt 0.539017 0.137617
vt 0.464567 0.321847
vt 0.421389 0.289662
vt 0.445123 0.267721
vt 0.788054 0.957015
vt 0.822251 0.995153
vt 0.772778 0.988935
vt 0.862337 0.160333
vt 0.890140 0.185355
vt 0.976219 0.187055
vt 0.957867 0.187051
vt 0.961830 0.149133
vt 0.934628 0.001878
vt 0.970133 0.022505
vt 0.055360 0.439565
vt 0.622234 0.116536
vt 0.624409 0.163408
vt 0.960923 0.957152
vt 0.919044 0.984790
vt 0.909864 0.971446
vt 0.567814 0.467653
vt 0.568607 0.411594
vt 0.665176 0.159671
vt 0.463622 0.670932
vt 0.431019 0.742113
vt 0.399358 0.696924
vt 0.789587 0.947291
vt 0.744707 0.923480
vt 0.051828 0.333837
vt 0.071019 0.370265
vt 0.048553 0.361232
vt 0.097320 0.224151
vt 0.086031 0.225875
vt 0.096469 0.207799
vt 0.336834 0.001841
vt 0.345523 0.009154
vt 0.324084 0.009151
vt 0.435295 0.013180
vt 0.462514 0.908287
vt 0.429719 0.872938
vt 0.490860 0.905277
vt 0.200893 0.860964
vt 0.217993 0.856402
vt 0.193011 0.911700
vt 0.717229 0.223953
vt 0.703650 0.242038
vt 0.697962 0.215310
vt 0.280373 0.291062
vt 0.515648 0.403490
vt 0.490183 0.446043
vt 0.480509 0.386920
vt 0.666902 0.301770
vt 0.651935 0.279129
vt 0.824395 0.181282
vt 0.852369 0.203202
vt 0.835688 0.226681
vt 0.564654 0.404038
vt 0.536106 0.387429
vt 0.238904 0.893407
vt 0.307830 0.863054
vt 0.343893 0.835137
vt 0.304903 0.833449
vt 0.319321 0.776770
vt 0.758712 0.143141
vt 0.795830 0.117618
vt 0.795435 0.153691
vt 0.416273 0.806554
vt 0.395107 0.762139
vt 0.451220 0.783460
vt 0.967789 0.018210
vt 0.994300 0.001511
vt 0.994251 0.018190
vt 0.711073 0.605619
vt 0.748307 0.607544
vt 0.737482 0.618195
vt 0.393925 0.319513
vt 0.379427 0.310965
vt 0.387226 0.294536
vt 0.790226 0.114348
vt 0.783413 0.101443
vt 0.090768 0.786868
vt 0.134497 0.772055
vt 0.148776 0.817329
vt 0.038275 0.769023
vt 0.035043 0.798667
vt 0.021382 0.778750
vt 0.757226 0.280062
vt 0.762532 0.317024
vt 0.741589 0.302321
vt 0.420407 0.301792
vt 0.387644 0.280034
vt 0.405003 0.265133
vt 0.277754 0.264417
vt 0.274222 0.282896
vt 0.247976 0.271880
vt 0.299806 0.252438
vt 0.031954 0.471965
vt 0.015267 0.517746
vt 0.002386 0.444158
vt 0.940387 0.208366
vt 0.918488 0.221665
vt 0.066268 0.642205
vt 0.064076 0.693339
vt 0.050483 0.656619
vt 0.026276 0.527607
vt 0.824810 0.030429
vt 0.825393 0.040291
vt 0.349697 0.441474
vt 0.407972 0.463650
vt 0.926608 0.718782
vt 0.945486 0.728729
vt 0.947278 0.466426
vt 0.945639 0.507652
vt 0.901470 0.497650
vt 0.947280 0.563865
vt 0.917920 0.526037
vt 0.971371 0.546200
vt 0.998226 0.576689
vt 0.995636 0.612257
vt 0.970028 0.891130
vt 0.986453 0.875457
vt 0.985601 0.890461
vt 0.485219 0.266487
vt 0.482946 0.252633
vt 0.502644 0.236322
vt 0.861361 0.315643
vt 0.896906 0.368752
vt 0.848780 0.367804
vt 0.528516 0.289785
vt 0.550369 0.241779
vt 0.568495 0.264072
vt 0.468383 0.960345
vt 0.504628 0.897567
vt 0.525423 0.921930
vt 0.967611 0.349362
vt 0.997860 0.366341
vt 0.989880 0.387931
vt 0.901029 0.574748
vt 0.915148 0.642334
vt 0.292869 0.589356
vt 0.325722 0.523130
vt 0.103049 0.021356
vt 0.113191 0.001575
vt 0.133914 0.003530
vt 0.288173 0.676083
vt 0.191885 0.671267
vt 0.157436 0.659225
vt 0.175202 0.611683
vt 0.496959 0.028185
vt 0.510316 0.005561
vt 0.526666 0.020229
vt 0.321988 0.221897
vt 0.296797 0.199110
vt 0.937725 0.165190
vt 0.030739 0.811233
vt 0.001550 0.817320
vt 0.005438 0.759287
vt 0.533194 0.022281
vt 0.540771 0.037654
vt 0.496154 0.034562
vt 0.185105 0.238434
vt 0.119963 0.217264
vt 0.113146 0.175139
vt 0.538860 0.521485
vt 0.526981 0.466774
vt 0.955184 0.182795
vt 0.942072 0.117824
vt 0.956145 0.126610
vt 0.045863 0.325771
vt 0.045303 0.394248
vt 0.687340 0.958617
vt 0.696547 0.895482
vt 0.963579 0.908644
vt 0.902669 0.935837
vt 0.855854 0.919863
vt 0.980911 0.039518
vt 0.973225 0.099924
vt 0.519213 0.563985
vt 0.523558 0.584052
vt 0.501440 0.551678
vt 0.367075 0.324337
vt 0.387292 0.323663
vt 0.429061 0.365681
vt 0.417713 0.370697
vt 0.354839 0.699885
vt 0.328718 0.681506
vt 0.394393 0.667259
vt 0.302299 0.775787
vt 0.273015 0.790215
vt 0.644983 0.302643
vt 0.668679 0.324959
vt 0.653691 0.323854
vt 0.662627 0.305255
vt 0.443941 0.388666
vt 0.454999 0.429924
vt 0.440016 0.414041
vt 0.557075 0.382807
vt 0.099634 0.854642
vt 0.078014 0.827198
vt 0.636661 0.308872
vt 0.596175 0.378995
vt 0.593948 0.325372
vt 0.697819 0.134965
vt 0.704697 0.145765
vt 0.687644 0.145766
vt 0.848843 0.215971
vt 0.863048 0.201757
vt 0.864898 0.226848
vt 0.357759 0.795621
vt 0.377099 0.838352
vt 0.426826 0.549088
vt 0.431838 0.602365
vt 0.383968 0.566634
vt 0.361646 0.230252
vt 0.318828 0.237571
vt 0.343465 0.225842
vt 0.641407 0.731329
vt 0.398560 0.611295
vt 0.791224 0.638270
vt 0.766270 0.343755
vt 0.350784 0.649336
vt 0.317768 0.614854
vt 0.366866 0.611930
vt 0.302265 0.639722
vt 0.810419 0.258558
vt 0.787639 0.193729
vt 0.822428 0.214813
vt 0.510482 0.492862
vt 0.496738 0.479118
vt 0.513116 0.468463
vt 0.770177 0.323672
vt 0.933333 0.006381
vt 0.935223 0.024665
vt 0.917512 0.001755
vt 0.565475 0.169380
vt 0.546558 0.180107
vt 0.543139 0.167360
vt 0.676514 0.225319
vt 0.686411 0.216238
vt 0.697674 0.227509
vt 0.761893 0.193702
vt 0.673171 0.058579
vt 0.721105 0.037612
vt 0.858456 0.155952
vt 0.833709 0.142891
vt 0.850961 0.127981
vt 0.826922 0.002048
vt 0.837429 0.005120
vt 0.828333 0.039043
vt 0.827445 0.750228
vt 0.789681 0.807481
vt 0.774984 0.802678
vt 0.302255 0.480496
vt 0.333974 0.470427
vt 0.331816 0.519578
vt 0.739700 0.546048
vt 0.695899 0.524409
vt 0.735605 0.451482
vt 0.442593 0.448283
vt 0.438416 0.459961
vt 0.428995 0.443585
vt 0.621377 0.256158
vt 0.641290 0.253440
vt 0.626777 0.281188
vt 0.985187 0.466882
vt 0.995630 0.497228
vt 0.994423 0.526156
vt 0.055830 0.451544
vt 0.076739 0.369411
vt 0.089906 0.409699
vt 0.875845 0.497894
vt 0.869351 0.567563
vt 0.960269 0.466919
vt 0.934451 0.457582
vt 0.948840 0.450791
vt 0.923223 0.440559
vt 0.305765 0.724019
vt 0.885533 0.659749
vt 0.939788 0.661943
vt 0.130570 0.428525
vt 0.117047 0.501008
vt 0.079011 0.475512
vt 0.115560 0.355805
vt 0.155243 0.360974
vt 0.161404 0.555454
vt 0.204347 0.515651
vt 0.253377 0.050420
vt 0.181306 0.206190
vt 0.241501 0.207920
vt 0.269682 0.166073
vt 0.497996 0.837669
vt 0.488169 0.878598
vt 0.443981 0.876313
vt 0.855440 0.014909
vt 0.816603 0.512569
vt 0.419628 0.910595
vt 0.659240 0.115437
vt 0.332448 0.954423
vt 0.298647 0.996950
vt 0.277827 0.957969
vt 0.611156 0.974015
vt 0.672210 0.969538
vt 0.662143 0.995226
vt 0.981461 0.188514
vt 0.607040 0.375248
vt 0.340204 0.903529
vt 0.347280 0.861245
vt 0.365305 0.892502
vt 0.501472 0.715193
vt 0.518911 0.650110
vt 0.539690 0.687300
vt 0.913719 0.967235
vt 0.977446 0.949110
vt 0.864663 0.042261
vt 0.839136 0.021547
vt 0.841548 0.001705
vt 0.637278 0.510884
vt 0.366503 0.710684
vt 0.409757 0.717575
vt 0.395115 0.732196
vt 0.041331 0.721683
vt 0.034965 0.702985
vt 0.660942 0.602267
vt 0.023745 0.729187
vt 0.829758 0.284328
vt 0.780641 0.276811
vt 0.968340 0.629079
vt 0.952684 0.547403
vt 0.775232 0.335844
vt 0.598393 0.220689
vt 0.979247 0.809585
vt 0.971350 0.769316
vt 0.950819 0.431809
vt 0.830714 0.373288
vt 0.844936 0.407817
vt 0.814020 0.402435
vt 0.783112 0.432025
vt 0.813012 0.377971
vt 0.824970 0.456715
vt 0.390616 0.764200
vt 0.275212 0.744811
vt 0.034970 0.546887
vt 0.113255 0.577879
vt 0.116943 0.666342
vt 0.079089 0.616036
vt 0.143852 0.611714
vt 0.158888 0.716486
vt 0.275289 0.008129
vt 0.273958 0.029752
vt 0.244661 0.008129
vt 0.223654 0.855434
vt 0.246231 0.879375
vt 0.223654 0.896219
vt 0.470431 0.222243
vt 0.556494 0.001976
vt 0.549690 0.014494
vt 0.389389 0.919212
vt 0.405871 0.936316
vt 0.382937 0.975160
vt 0.763834 0.007330
vt 0.745280 0.001515
vt 0.771600 0.001842
vt 0.030734 0.855277
vt 0.444741 0.941412
vt 0.414593 0.938145
vt 0.508820 0.533411
vt 0.054996 0.864783
vt 0.602483 0.068505
vt 0.647798 0.071103
vt 0.417301 0.007688
vt 0.217861 0.918682
vt 0.699376 0.670846
vt 0.636080 0.693725
vt 0.630206 0.654379
vt 0.270523 0.856190
vt 0.787798 0.623651
vt 0.783391 0.630496
vt 0.045082 0.825442
vt 0.407157 0.835627
vt 0.383087 0.805218
vt 0.270981 0.252451
vt 0.287091 0.256080
vt 0.001760 0.659338
vt 0.968834 0.194397
vt 0.951527 0.221950
vt 0.935206 0.185548
vt 0.377176 0.547351
vt 0.001514 0.521278
vt 0.615710 0.302252
vt 0.615507 0.250088
vt 0.042098 0.745783
vt 0.092020 0.745728
vt 0.011000 0.762927
vt 0.001696 0.718997
vt 0.413268 0.449163
vt 0.405505 0.442664
vt 0.417586 0.421735
vt 0.457379 0.637141
vt 0.422890 0.633400
vt 0.960613 0.640036
vt 0.911243 0.707433
vt 0.548360 0.195206
vt 0.868901 0.426341
vt 0.932121 0.396444
vt 0.969906 0.813118
vt 0.909817 0.797017
vt 0.933821 0.783647
vt 0.319346 0.593576
vt 0.289325 0.653437
vt 0.206745 0.722869
vt 0.683832 0.108403
vt 0.735977 0.057518
vt 0.709007 0.141440
vt 0.057743 0.708973
vt 0.079185 0.674655
vt 0.666202 0.229827
vt 0.697949 0.231238
vt 0.679069 0.251561
vt 0.981526 0.060840
vt 0.998150 0.067623
vt 0.981527 0.070828
vt 0.422564 0.095481
vt 0.631066 0.894653
vt 0.658770 0.832509
vt 0.736890 0.839254
vt 0.195587 0.773309
vt 0.216463 0.775560
vt 0.201938 0.811459
vt 0.078123 0.939521
vt 0.458052 0.551273
vt 0.499000 0.548594
vt 0.009137 0.029457
vt 0.001517 0.086755
vt 0.001511 0.026463
vt 0.834635 0.374915
vt 0.846546 0.371554
vt 0.865510 0.428397
vt 0.554526 0.820503
vt 0.601004 0.820366
vt 0.595958 0.839115
vt 0.685872 0.147501
vt 0.819061 0.556063
vt 0.795916 0.556913
vt 0.364867 0.298324
vt 0.375236 0.274746
vt 0.377419 0.307786
vt 0.394322 0.244668
vt 0.546700 0.001517
vt 0.519232 0.004377
vt 0.507359 0.001514
vt 0.817992 0.063433
vt 0.795431 0.047564
vt 0.823140 0.044202
vt 0.709776 0.045958
vt 0.762303 0.043989
vt 0.686493 0.064302
vt 0.748905 0.201044
vt 0.785632 0.247709
vt 0.177155 0.785623
vt 0.045951 0.443953
vt 0.856813 0.261938
vt 0.832587 0.276324
vt 0.836268 0.256427
vt 0.009565 0.183256
vt 0.002382 0.183526
vt 0.002382 0.134184
vt 0.035945 0.612987
vt 0.012235 0.154348
vt 0.402152 0.639392
vt 0.951237 0.326660
vt 0.955172 0.304699
vt 0.974856 0.346371
vt 0.324279 0.573136
vt 0.910338 0.463796
vt 0.871260 0.455688
vt 0.897194 0.444179
vt 0.423417 0.644659
vt 0.372415 0.665245
vt 0.416414 0.632530
vt 0.851999 0.697536
vt 0.902528 0.711758
vt 0.820654 0.508653
vt 0.847353 0.522877
vt 0.858620 0.546619
vt 0.074054 0.538715
vt 0.781401 0.078526
vt 0.792621 0.088526
vt 0.783948 0.097332
vt 0.918438 0.200519
vt 0.101696 0.221068
vt 0.524997 0.081061
vt 0.480792 0.241628
vt 0.970234 0.832704
vt 0.016329 0.356889
vt 0.012211 0.302805
vt 0.443461 0.375788
vt 0.474519 0.375097
vt 0.486263 0.441011
vt 0.646348 0.205530
vt 0.585214 0.208316
vt 0.256269 0.810146
vt 0.243847 0.785487
vt 0.271531 0.753187
vt 0.746223 0.955209
vt 0.732910 0.978492
vt 0.456625 0.442315
vt 0.432843 0.349880
vt 0.614521 0.652760
vt 0.611970 0.636391
vt 0.317276 0.708534
vt 0.346765 0.720521
vt 0.332766 0.730843
vt 0.544131 0.631405
vt 0.528486 0.658960
vt 0.613051 0.630454
vt 0.842779 0.084103
vt 0.027695 0.199534
vt 0.036806 0.225751
vt 0.021784 0.221571
vt 0.487270 0.054029
vt 0.492431 0.036188
vt 0.518930 0.043288
vt 0.245909 0.252050
vt 0.977799 0.299973
vt 0.960776 0.286393
vt 0.129945 0.240783
vt 0.068911 0.251390
vt 0.120436 0.221989
vt 0.911045 0.010698
vt 0.461067 0.838715
vt 0.446114 0.867124
vt 0.436604 0.839438
vt 0.976773 0.691183
vt 0.982215 0.713035
vt 0.996769 0.661635
vt 0.974149 0.668065
vt 0.565337 0.347650
vt 0.682423 0.758884
vt 0.905832 0.294098
vt 0.939188 0.356960
vt 0.761494 0.015433
vt 0.955376 0.482206
vt 0.709831 0.581422
vt 0.132988 0.279744
vt 0.077044 0.305076
vt 0.492937 0.268857
vt 0.084486 0.693715
vt 0.278283 0.395957
vt 0.160720 0.485063
vt 0.186646 0.445888
vt 0.391714 0.123007
vt 0.364791 0.097086
vt 0.364457 0.055316
vt 0.416229 0.050052
vt 0.165144 0.809809
vt 0.200510 0.835274
vt 0.163556 0.836499
vt 0.076608 0.944585
vt 0.082067 0.962139
vt 0.026435 0.939022
vt 0.710037 0.011786
vt 0.365451 0.993035
vt 0.819348 0.479065
vt 0.565158 0.001512
vt 0.576374 0.015314
vt 0.557113 0.007143
vt 0.569074 0.095410
vt 0.325759 0.058117
vt 0.316755 0.058117
vt 0.325499 0.047358
vt 0.751460 0.603821
vt 0.741183 0.577481
vt 0.795362 0.606270
vt 0.095037 0.942253
vt 0.112526 0.949355
vt 0.516671 0.594774
vt 0.488072 0.574831
vt 0.489172 0.589610
vt 0.442876 0.444676
vt 0.415765 0.414053
vt 0.682551 0.302643
vt 0.308176 0.907980
vt 0.180369 0.965890
vt 0.183318 0.989131
vt 0.141960 0.996813
vt 0.548903 0.604430
vt 0.952805 0.001514
vt 0.571752 0.202242
vt 0.547771 0.184659
vt 0.578598 0.194523
vt 0.718276 0.266531
vt 0.925579 0.203421
vt 0.930942 0.183406
vt 0.940784 0.206401
vt 0.481421 0.813310
vt 0.658615 0.068400
vt 0.092640 0.256736
vt 0.790791 0.157982
vt 0.453818 0.007330
vt 0.417973 0.001518
vt 0.498705 0.001513
vt 0.494718 0.626454
vt 0.499446 0.599507
vt 0.540036 0.620761
vt 0.986453 0.913043
vt 0.655928 0.087196
vt 0.693581 0.065460
vt 0.518057 0.206674
vt 0.025785 0.192853
vt 0.001595 0.290089
vt 0.005925 0.212641
vt 0.216083 0.385126
vt 0.268748 0.328388
vt 0.083690 0.030682
vt 0.539698 0.005862
vt 0.172853 0.400709
vt 0.260432 0.112076
vt 0.314503 0.076807
vt 0.630083 0.046201
vt 0.643750 0.044104
vt 0.655485 0.071603
vt 0.021231 0.230830
vt 0.856967 0.105048
vt 0.462031 0.441068
vt 0.449623 0.397329
vt 0.003786 0.929085
vt 0.846411 0.987835
vt 0.779251 0.542613
vt 0.519816 0.640079
vt 0.480970 0.653909
vt 0.459027 0.639822
vt 0.033913 0.845819
vt 0.860128 0.978414
vt 0.197502 0.244107
vt 0.233450 0.269378
vt 0.211136 0.275364
vt 0.521441 0.377837
vt 0.504776 0.371345
vt 0.327233 0.269608
vt 0.560725 0.352002
vt 0.585048 0.371463
vt 0.361250 0.863067
vt 0.487109 0.569407
vt 0.996594 0.326956
vt 0.994618 0.354401
vt 0.979524 0.351915
vt 0.135741 0.736587
vt 0.936051 0.254447
vt 0.304258 0.429945
vt 0.764675 0.500478
vt 0.848929 0.509298
vt 0.883968 0.473401
vt 0.950734 0.589032
vt 0.711233 0.791578
vt 0.763178 0.801848
vt 0.299027 0.249501
vt 0.483078 0.062076
vt 0.565125 0.415920
vt 0.563755 0.460742
vt 0.539354 0.460562
vt 0.816850 0.589593
vt 0.805006 0.627417
vt 0.396150 0.686639
vt 0.728512 0.212120
vt 0.688191 0.211246
vt 0.735295 0.188209
vt 0.704543 0.166604
vt 0.348647 0.284313
vt 0.529453 0.352546
vt 0.798988 0.059102
vt 0.587514 0.349178
vt 0.477711 0.591976
vt 0.724321 0.578679
vt 0.762425 0.512683
vt 0.778159 0.551826
vt 0.145212 0.001518
vt 0.363029 0.883207
vt 0.392423 0.832296
vt 0.434035 0.853062
vt 0.382083 0.897797
vt 0.823161 0.163578
vt 0.840623 0.168164
vt 0.823163 0.176311
vt 0.831654 0.161058
vt 0.627481 0.818691
vt 0.605042 0.788248
vt 0.075883 0.280299
vt 0.067505 0.387376
vt 0.059018 0.416136
vt 0.049011 0.387377
vt 0.653910 0.272409
vt 0.011478 0.332791
vt 0.001512 0.395026
vt 0.001512 0.318956
vt 0.994100 0.915991
vt 0.994100 0.963512
vt 0.988636 0.938676
vt 0.516032 0.344902
vt 0.469255 0.330234
vt 0.322032 0.363097
vt 0.211207 0.328716
vt 0.306414 0.012844
vt 0.918933 0.105175
vt 0.937345 0.103641
vt 0.938094 0.118539
vt 0.421968 0.890205
vt 0.600657 0.034493
vt 0.579328 0.020483
vt 0.567726 0.795466
vt 0.503710 0.803650
vt 0.935585 0.996616
vt 0.994115 0.969837
vt 0.624046 0.043798
vt 0.310297 0.757802
vt 0.320486 0.334852
vt 0.271436 0.319437
vt 0.321115 0.306190
vt 0.683225 0.273454
vt 0.606190 0.800918
vt 0.752876 0.181870
vt 0.743493 0.200522
vt 0.475785 0.941759
vt 0.299183 0.682807
vt 0.551314 0.683418
vt 0.507204 0.349068
vt 0.831459 0.628432
vt 0.008475 0.578196
vt 0.023928 0.651604
vt 0.399301 0.323541
vt 0.425162 0.338853
vt 0.040477 0.612141
vt 0.032941 0.552906
vt 0.058436 0.545145
vt 0.094604 0.229128
vt 0.848393 0.754486
vt 0.870962 0.705961
vt 0.955516 0.410359
vt 0.688882 0.626214
vt 0.650948 0.636763
vt 0.693024 0.125844
vt 0.683617 0.139483
vt 0.656721 0.092898
vt 0.917520 0.076154
vt 0.932123 0.063049
vt 0.930765 0.089290
vt 0.998331 0.071112
vt 0.998328 0.087570
vt 0.978688 0.080710
vt 0.823218 0.343994
vt 0.799352 0.317571
vt 0.983592 0.925532
vt 0.042846 0.615167
vt 0.778415 0.097436
vt 0.778354 0.044476
vt 0.837189 0.491734
vt 0.002280 0.924763
vt 0.932528 0.091582
vt 0.867647 0.208595
vt 0.684224 0.991903
vt 0.613016 0.032126
vt 0.829476 0.068057
vt 0.865027 0.046390
vt 0.840714 0.079290
vt 0.631757 0.325045
vt 0.844440 0.536685
vt 0.991888 0.021504
vt 0.367945 0.332151
vt 0.327469 0.334367
vt 0.324097 0.306833
vt 0.526949 0.425213
vt 0.522290 0.407820
vt 0.548491 0.410871
vt 0.731784 0.148633
vt 0.757865 0.156705
vt 0.499757 0.827158
vt 0.465173 0.847125
vt 0.459963 0.805810
vt 0.388460 0.826323
vt 0.008451 0.706142
vt 0.367166 0.732005
vt 0.338150 0.732195
vt 0.046409 0.654200
vt 0.145899 0.233676
vt 0.142334 0.256330
vt 0.989888 0.287976
vt 0.121305 0.268396
vt 0.101286 0.272501
vt 0.350919 0.377349
vt 0.394541 0.734965
vt 0.387965 0.759498
vt 0.346995 0.737716
vt 0.390844 0.349925
vt 0.334562 0.369531
vt 0.792621 0.047236
vt 0.289383 0.435144
vt 0.243296 0.269463
vt 0.310186 0.012979
vt 0.338759 0.012979
vt 0.320242 0.047411
vt 0.065217 0.273388
vt 0.315081 0.608843
vt 0.327152 0.590824
vt 0.353831 0.608843
vt 0.830358 0.557235
vt 0.944831 0.149023
vt 0.951053 0.181781
vt 0.936802 0.181781
vt 0.115829 0.981219
vt 0.005809 0.023074
vt 0.062739 0.004514
vt 0.073336 0.027477
vt 0.683700 0.066903
vt 0.658702 0.081330
vt 0.673342 0.062456
vt 0.667913 0.266988
vt 0.690567 0.244344
vt 0.682819 0.268612
vt 0.218076 0.785609
vt 0.586364 0.979319
vt 0.648854 0.996027
vt 0.581280 0.996028
vt 0.141181 0.954646
vt 0.720046 0.615758
vt 0.499740 0.346510
vt 0.479001 0.382439
vt 0.470127 0.335070
vt 0.230573 0.246371
vt 0.998085 0.166582
vt 0.985408 0.188532
vt 0.981607 0.157331
vt 0.830812 0.042410
vt 0.774746 0.001516
vt 0.812391 0.001512
vt 0.782007 0.011507
vt 0.363804 0.589258
vt 0.836213 0.242775
vt 0.860121 0.090784
vt 0.854823 0.065423
vt 0.835289 0.549638
vt 0.938521 0.377013
vt 0.940783 0.404890
vt 0.948447 0.241180
vt 0.954110 0.262305
vt 0.939422 0.249382
vt 0.944741 0.266800
vt 0.956915 0.390511
vt 0.966839 0.407691
vt 0.941394 0.409083
vt 0.311716 0.390012
vt 0.214287 0.760423
vt 0.248624 0.040529
vt 0.359335 0.587586
vt 0.625365 0.296503
vt 0.255429 0.288585
vt 0.057007 0.382644
vt 0.348383 0.012948
vt 0.360935 0.015474
vt 0.348383 0.035176
vt 0.514476 0.988549
vt 0.376445 0.774207
vt 0.359409 0.779466
vt 0.573130 0.170020
vt 0.750557 0.151346
vt 0.722381 0.142019
vt 0.753340 0.140976
vt 0.246608 0.797554
vt 0.257832 0.839441
vt 0.223908 0.849041
vt 0.819194 0.162791
vt 0.656382 0.235021
vt 0.776993 0.785691
vt 0.869462 0.058691
vt 0.863393 0.083256
vt 0.857393 0.061930
vt 0.832354 0.763597
vt 0.414762 0.372878
vt 0.335898 0.372878
vt 0.384924 0.355203
vt 0.632795 0.824370
vt 0.691766 0.799902
vt 0.711668 0.822296
vt 0.704096 0.794062
vt 0.986048 0.155058
vt 0.996756 0.147115
vt 0.912678 0.044270
vt 0.278961 0.967471
vt 0.230609 0.992940
vt 0.165144 0.997968
vt 0.048320 0.647636
vt 0.040427 0.618202
vt 0.076209 0.626467
vt 0.538930 0.167248
vt 0.073989 0.034363
vt 0.011562 0.034363
vt 0.025939 0.027820
vt 0.173354 0.780482
vt 0.141621 0.002700
vt 0.998289 0.015865
vt 0.998289 0.064800
vt 0.983267 0.054665
vt 0.652908 0.001512
vt 0.701046 0.001516
vt 0.694084 0.008473
vt 0.704499 0.600563
vt 0.002153 0.989546
vt 0.241242 0.755546
vt 0.525382 0.429890
vt 0.500782 0.700782
vt 0.463837 0.663836
vt 0.516347 0.648173
vt 0.139286 0.769339
vt 0.143780 0.724924
vt 0.166169 0.769341
vt 0.874115 0.706958
vt 0.897184 0.714017
vt 0.864433 0.743081
vt 0.358471 0.669487
vt 0.307081 0.670619
vt 0.909855 0.023944
vt 0.921219 0.043639
vt 0.908918 0.036374
vt 0.831246 0.248730
vt 0.762906 0.299638
vt 0.901072 0.485338
vt 0.912691 0.101499
vt 0.996479 0.779531
vt 0.705865 0.001515
vt 0.170823 0.843513
vt 0.366911 0.012596
vt 0.997975 0.744747
vt 0.980802 0.730143
vt 0.997976 0.666320
vt 0.337057 0.062705
vt 0.333058 0.032654
vt 0.344112 0.032654
vt 0.509229 0.552529
vt 0.414694 0.001515
vt 0.386271 0.018107
vt 0.348269 0.001515
vt 0.665930 0.225403
vt 0.534306 0.581488
vt 0.516244 0.628026
vt 0.425977 0.397879
vt 0.434152 0.363205
vt 0.266826 0.841725
vt 0.517658 0.288365
vt 0.467697 0.321665
vt 0.480620 0.266980
vt 0.689805 0.136013
vt 0.245926 0.043231
vt 0.234670 0.042639
vt 0.222072 0.001937
vt 0.820258 0.067900
vt 0.532285 0.173056
vt 0.011261 0.273773
vt 0.002177 0.299676
vt 0.015954 0.248257
vt 0.758191 0.787839
vt 0.363662 0.584529
vt 0.822421 0.001755
vt 0.923251 0.635678
vt 0.954045 0.589533
vt 0.965239 0.631322
vt 0.001519 0.579458
vt 0.016454 0.632783
vt 0.001519 0.639441
vt 0.847606 0.164362
vt 0.828250 0.359371
vt 0.537227 0.982088
vt 0.087333 0.742161
vt 0.784116 0.044460
vt 0.145617 0.261540
vt 0.148664 0.235925
vt 0.170241 0.236916
vt 0.600051 0.216899
vt 0.643069 0.209779
vt 0.651473 0.230677
s 1
usemtl Pig_Tris_Material
f 126/1/1 115/2/2 151/3/3
f 151/4/3 115/5/2 120/6/4
f 103/7/5 120/6/4 115/5/2
f 120/8/4 103/9/5 94/10/6
f 115/11/2 100/12/7 103/13/5
f 101/14/8 120/8/4 94/10/6
f 100/15/7 115/16/2 126/17/1
f 68/18/9 73/19/10 94/20/6
f 230/21/11 243/22/12 282/23/13
f 284/24/14 282/23/13 243/22/12
f 433/25/15 390/26/16 387/27/17
f 103/28/5 87/29/18 94/30/6
f 460/31/19 390/26/16 433/25/15
f 320/32/20 299/33/21 329/34/22
f 108/35/23 103/28/5 100/36/7
f 363/37/24 409/38/25 381/39/26
f 108/35/23 87/29/18 103/28/5
f 397/40/27 381/39/26 409/38/25
f 100/36/7 83/41/28 108/35/23
f 299/42/21 295/43/29 289/44/30
f 386/45/31 379/46/32 389/47/33
f 386/48/31 396/49/34 379/50/32
f 131/51/35 99/52/36 100/15/7
f 382/53/37 381/39/26 397/40/27
f 440/54/38 461/55/39 454/56/40
f 83/41/28 100/36/7 99/57/36
f 419/58/41 420/59/42 439/60/43
f 180/61/44 186/62/45 187/63/46
f 186/64/45 201/65/47 187/66/46
f 187/67/46 201/68/47 213/69/48
f 71/70/49 83/41/28 99/57/36
f 482/71/50 484/72/51 476/73/52
f 481/74/53 473/75/54 453/76/55
f 457/77/56 451/78/57 461/79/39
f 215/80/58 268/81/59 219/82/60
f 268/81/59 215/80/58 274/83/61
f 434/84/62 447/85/63 461/86/39
f 217/87/64 232/88/65 209/89/66
f 32/90/67 79/91/68 37/92/69
f 260/93/70 232/88/65 217/87/64
f 301/94/71 323/95/72 322/96/73
f 322/96/73 323/95/72 341/97/74
f 435/98/75 468/99/76 447/100/63
f 281/101/77 255/102/78 266/103/79
f 483/104/80 492/105/81 489/106/82
f 497/107/83 489/108/82 492/109/81
f 486/110/84 472/111/85 481/74/53
f 394/112/86 422/113/87 435/114/75
f 370/115/88 366/116/89 358/117/90
f 252/118/91 208/119/92 219/120/60
f 494/121/93 485/122/94 489/123/82
f 494/121/93 489/123/82 497/124/83
f 208/119/92 252/118/91 241/125/95
f 494/126/93 495/127/96 491/128/97
f 436/129/98 372/130/99 391/131/100
f 300/132/101 266/103/79 286/133/102
f 372/130/99 436/129/98 430/134/103
f 372/135/99 364/136/104 324/137/105
f 38/138/106 52/139/107 25/140/108
f 204/141/109 210/142/110 222/143/111
f 444/144/112 456/145/113 459/146/114
f 200/147/115 184/148/116 192/149/117
f 212/150/118 216/151/119 225/152/120
f 423/153/121 408/154/122 405/155/123
f 423/156/121 438/157/124 442/158/125
f 235/159/126 249/160/127 237/161/128
f 106/162/129 97/163/130 91/164/131
f 110/165/132 91/166/131 95/167/133
f 364/136/104 338/168/134 326/169/135
f 178/170/136 206/171/137 164/172/138
f 97/173/130 96/174/139 91/175/131
f 471/176/140 467/177/141 479/178/142
f 97/179/130 106/180/129 121/181/143
f 326/169/135 338/168/134 309/182/144
f 249/183/127 223/184/145 240/185/146
f 254/186/147 249/183/127 240/185/146
f 96/187/139 97/179/130 121/181/143
f 365/188/148 362/189/149 371/190/150
f 91/166/131 96/191/139 95/167/133
f 128/192/151 96/187/139 121/181/143
f 392/193/152 374/194/153 448/195/154
f 96/191/139 109/196/155 95/167/133
f 95/197/133 109/198/155 65/199/156
f 109/198/155 90/200/157 65/199/156
f 244/201/158 273/202/159 278/203/160
f 307/204/161 339/205/162 316/206/163
f 90/200/157 109/198/155 113/207/164
f 116/208/165 109/198/155 96/209/139
f 116/208/165 113/207/164 109/198/155
f 153/210/166 133/211/167 128/212/151
f 96/209/139 133/213/167 116/208/165
f 132/214/168 116/208/165 133/213/167
f 132/215/168 134/216/169 116/217/165
f 153/218/166 134/216/169 132/215/168
f 132/219/168 133/220/167 153/221/166
f 363/222/24 347/223/170 369/224/171
f 347/223/170 353/225/172 369/224/171
f 345/226/173 336/227/174 334/228/175
f 347/223/170 333/229/176 353/225/172
f 363/222/24 390/26/16 409/230/25
f 284/24/14 243/22/12 271/231/177
f 161/232/178 168/233/179 179/234/180
f 381/39/26 340/235/181 350/236/182
f 242/237/183 261/238/184 239/239/185
f 453/240/55 409/241/25 460/242/19
f 311/243/186 328/244/187 299/42/21
f 379/245/32 396/246/34 410/247/188
f 476/73/52 460/242/19 464/248/189
f 85/249/190 161/232/178 140/250/191
f 220/251/192 250/252/193 231/253/194
f 262/254/195 271/255/177 250/256/193
f 291/257/196 289/44/30 277/258/197
f 368/259/198 361/260/199 351/261/200
f 368/262/198 378/263/201 389/47/33
f 401/264/202 420/59/42 419/58/41
f 85/249/190 47/265/203 46/266/204
f 429/267/205 457/268/56 452/269/206
f 342/270/207 311/271/186 322/96/73
f 33/272/208 46/266/204 47/265/203
f 215/273/58 173/274/209 182/275/210
f 340/235/181 344/276/211 327/277/212
f 56/278/213 60/279/214 62/280/215
f 102/281/216 77/282/217 118/283/218
f 77/284/217 102/285/216 62/286/215
f 82/287/219 108/35/23 83/41/28
f 159/288/220 182/289/210 173/290/209
f 224/291/221 236/292/222 214/293/223
f 176/294/224 217/295/64 195/296/225
f 217/87/64 209/89/66 195/297/225
f 28/298/226 39/299/227 34/300/228
f 255/102/78 267/301/229 262/302/195
f 281/303/77 267/304/229 255/305/78
f 10/306/230 28/298/226 20/307/231
f 79/91/68 67/308/232 149/309/233
f 50/310/234 42/311/235 54/312/236
f 79/313/68 40/314/237 67/315/232
f 155/316/238 157/317/239 166/318/240
f 474/319/241 489/320/82 485/321/94
f 478/322/242 491/323/97 492/324/81
f 485/325/94 478/326/242 477/327/243
f 485/328/94 491/128/97 478/329/242
f 494/126/93 491/128/97 485/328/94
f 463/330/244 490/331/245 487/332/246
f 455/333/247 422/334/87 425/335/248
f 211/336/249 256/337/250 247/338/251
f 119/339/252 106/340/129 78/341/253
f 92/342/254 78/343/253 59/344/255
f 92/342/254 119/345/252 78/343/253
f 395/346/256 424/347/257 425/348/248
f 25/140/108 13/349/258 30/350/259
f 18/351/260 6/352/261 13/353/258
f 402/354/262 424/347/257 395/346/256
f 192/149/117 185/355/263 191/356/264
f 472/111/85 450/357/265 470/358/266
f 450/357/265 372/130/99 430/134/103
f 237/161/128 258/359/267 246/360/268
f 355/361/269 380/362/270 377/363/271
f 326/169/135 324/137/105 364/136/104
f 402/364/262 395/365/256 380/362/270
f 403/366/272 415/367/273 407/368/274
f 178/369/136 164/370/138 167/371/275
f 55/372/276 69/373/277 64/374/278
f 61/375/279 117/376/280 130/377/281
f 253/378/282 229/379/283 221/380/284
f 169/381/285 144/382/286 130/383/281
f 263/384/287 251/385/288 240/386/146
f 467/177/141 414/387/289 427/388/290
f 296/389/291 316/206/163 313/390/292
f 142/391/293 128/392/151 129/393/294
f 278/203/160 263/394/287 244/201/158
f 233/395/295 245/396/296 272/397/297
f 116/398/165 134/399/169 113/400/164
f 390/26/16 363/222/24 369/224/171
f 282/23/13 295/401/29 292/402/298
f 282/23/13 284/24/14 295/401/29
f 350/236/182 363/37/24 381/39/26
f 295/43/29 284/403/14 289/44/30
f 368/404/198 379/405/32 357/406/299
f 162/407/300 160/408/301 182/409/210
f 250/252/193 271/231/177 231/253/194
f 328/410/187 361/411/199 357/412/299
f 342/270/207 351/413/200 328/414/187
f 411/415/302 406/416/303 417/417/304
f 419/58/41 406/418/303 411/419/302
f 327/277/212 294/420/305 312/421/306
f 413/422/307 382/53/37 397/40/27
f 376/423/308 360/424/309 382/53/37
f 388/425/310 399/426/311 389/47/33
f 404/427/312 428/428/313 401/429/202
f 199/430/314 224/431/221 186/432/45
f 186/432/45 181/433/315 199/430/314
f 416/434/316 434/435/62 431/436/317
f 51/437/318 42/311/235 41/438/319
f 112/439/320 71/440/49 107/441/321
f 112/439/320 75/442/322 71/440/49
f 93/443/323 54/444/236 66/445/324
f 15/446/325 10/306/230 20/307/231
f 480/447/326 468/448/76 487/332/246
f 488/449/327 484/450/51 487/451/246
f 496/452/328 495/453/96 497/454/83
f 477/455/243 478/456/242 470/457/266
f 50/310/234 93/458/323 105/459/329
f 42/460/235 43/461/330 34/462/228
f 3/463/331 5/464/332 1/465/333
f 285/466/334 241/125/95 252/118/91
f 43/461/330 35/467/335 34/462/228
f 372/135/99 324/137/105 356/468/336
f 270/469/337 266/103/79 247/338/251
f 270/469/337 286/133/102 266/103/79
f 21/470/338 14/471/339 27/472/340
f 21/470/338 8/473/341 14/471/339
f 164/474/138 147/475/342 145/476/343
f 78/477/253 70/478/344 59/479/255
f 106/162/129 91/164/131 78/480/253
f 53/481/345 59/482/255 64/483/278
f 212/484/118 191/485/264 185/486/263
f 212/487/118 225/488/120 191/489/264
f 408/154/122 423/153/121 442/490/125
f 204/491/109 164/172/138 210/492/110
f 225/152/120 216/151/119 235/159/126
f 189/493/346 212/494/118 185/495/263
f 64/496/278 58/497/347 55/498/276
f 189/499/346 198/500/348 223/501/145
f 448/502/154 450/357/265 465/503/349
f 448/502/154 465/503/349 475/504/350
f 330/505/351 332/506/352 304/507/353
f 55/508/276 76/509/354 69/510/277
f 76/511/354 88/512/355 80/513/356
f 384/514/357 393/515/358 398/516/359
f 309/517/144 338/518/134 335/519/360
f 400/520/361 414/387/289 445/521/362
f 121/522/143 154/523/363 135/524/364
f 154/523/363 146/525/365 135/524/364
f 263/394/287 240/526/146 244/201/158
f 469/527/366 427/388/290 392/528/152
f 325/529/367 314/530/368 318/531/369
f 354/532/370 359/533/371 325/529/367
f 306/534/372 315/535/373 273/202/159
f 317/536/374 334/228/175 336/227/174
f 329/537/22 353/225/172 333/229/176
f 320/538/20 333/229/176 310/539/375
f 409/230/25 390/26/16 460/31/19
f 357/412/299 329/537/22 328/410/187
f 183/540/376 182/541/210 160/542/301
f 342/543/207 328/244/187 311/243/186
f 138/544/377 99/52/36 131/51/35
f 162/545/300 182/289/210 159/288/220
f 401/264/202 419/58/41 411/419/302
f 47/265/203 39/546/227 33/272/208
f 136/547/378 85/548/190 72/549/379
f 214/550/223 236/551/222 238/552/380
f 418/553/381 417/417/304 399/426/311
f 301/94/71 322/96/73 302/554/382
f 163/555/383 176/556/224 177/557/384
f 34/558/228 39/559/227 41/560/319
f 391/561/100 376/423/308 413/422/307
f 436/562/98 391/561/100 413/422/307
f 436/563/98 474/564/241 485/565/94
f 358/117/90 343/566/385 332/506/352
f 211/567/249 165/568/386 204/569/109
f 3/570/331 8/571/341 6/352/261
f 332/506/352 355/572/269 358/117/90
f 3/570/331 1/573/333 8/571/341
f 300/132/101 304/507/353 323/95/72
f 52/139/107 98/574/387 145/575/343
f 403/366/272 426/576/388 402/577/262
f 256/337/250 265/578/389 270/469/337
f 98/574/387 38/138/106 61/375/279
f 221/380/284 229/379/283 170/579/390
f 158/580/391 121/181/143 125/581/392
f 135/524/364 146/525/365 124/582/393
f 407/583/274 415/584/273 432/585/394
f 290/586/395 286/133/102 280/587/396
f 449/588/397 432/585/394 415/584/273
f 240/526/146 223/589/145 194/590/398
f 309/517/144 318/531/369 287/591/399
f 298/592/400 203/593/401 259/594/402
f 264/595/403 245/396/296 203/593/401
f 245/396/296 169/596/285 203/593/401
f 261/597/184 283/598/404 293/599/405
f 353/225/172 379/245/32 387/27/17
f 293/600/405 317/601/374 319/602/406
f 196/603/407 231/253/194 243/22/12
f 162/407/300 137/604/408 150/605/409
f 231/253/194 271/231/177 243/22/12
f 239/239/185 183/540/376 242/237/183
f 175/606/410 196/607/407 168/608/179
f 89/609/411 73/610/10 56/611/213
f 277/258/197 289/44/30 284/403/14
f 368/404/198 389/612/33 379/405/32
f 162/545/300 138/613/377 137/614/408
f 351/413/200 361/615/199 328/414/187
f 138/613/377 162/545/300 159/288/220
f 480/447/326 464/248/189 462/616/412
f 461/55/39 462/616/412 454/56/40
f 57/617/413 41/618/319 47/265/203
f 267/304/229 281/303/77 277/258/197
f 291/257/196 277/258/197 281/303/77
f 63/619/414 82/287/219 83/41/28
f 83/41/28 71/70/49 63/619/414
f 79/91/68 32/90/67 40/620/237
f 331/621/415 303/622/416 294/623/305
f 67/308/232 147/624/342 149/309/233
f 496/625/328 493/626/417 492/324/81
f 435/627/75 422/334/87 463/330/244
f 468/448/76 463/330/244 487/332/246
f 119/628/252 122/629/418 155/316/238
f 92/342/254 105/630/329 123/631/419
f 450/357/265 430/134/103 470/358/266
f 21/632/338 13/353/258 8/571/341
f 234/633/420 246/634/268 256/635/250
f 472/111/85 486/110/84 488/636/327
f 425/348/248 424/347/257 444/637/112
f 304/507/353 332/506/352 323/95/72
f 241/638/95 221/380/284 207/639/421
f 458/640/422 471/641/140 455/333/247
f 458/640/422 446/642/423 437/643/424
f 80/644/356 81/645/425 64/646/278
f 49/647/426 44/648/427 43/461/330
f 263/649/287 258/359/267 254/650/147
f 403/366/272 398/516/359 415/367/273
f 174/651/428 170/579/390 229/379/283
f 141/652/429 86/653/430 146/525/365
f 178/654/136 156/655/431 171/656/432
f 296/389/291 290/657/395 280/658/396
f 190/659/433 240/526/146 194/590/398
f 362/660/149 330/661/351 349/662/434
f 134/216/169 142/663/293 129/664/294
f 104/665/435 134/666/169 129/667/294
f 306/534/372 273/202/159 272/397/297
f 126/668/1 151/669/3 120/670/4
f 353/225/172 387/27/17 369/224/171
f 179/234/180 230/21/11 227/671/436
f 279/672/437 261/238/184 293/673/405
f 340/235/181 312/421/306 319/674/406
f 89/675/411 102/676/216 114/677/438
f 464/248/189 433/678/15 454/56/40
f 484/679/51 453/76/55 476/680/52
f 188/681/439 187/682/46 193/683/440
f 180/684/44 187/685/46 188/686/439
f 411/687/302 404/688/312 401/689/202
f 360/424/309 344/276/211 340/235/181
f 24/690/441 33/272/208 39/546/227
f 173/274/209 215/273/58 219/120/60
f 157/691/239 112/692/320 138/544/377
f 341/97/74 358/117/90 351/413/200
f 480/447/326 462/616/412 468/448/76
f 7/693/442 12/694/443 11/695/444
f 6/696/261 11/695/444 12/694/443
f 466/697/445 483/698/80 489/699/82
f 473/700/54 483/701/80 466/702/445
f 481/74/53 470/358/266 473/75/54
f 470/358/266 481/74/53 472/111/85
f 303/622/416 252/118/91 294/623/305
f 486/703/84 484/704/51 488/705/327
f 492/324/81 491/323/97 496/625/328
f 149/706/233 165/707/386 176/294/224
f 266/103/79 300/132/101 301/94/71
f 487/332/246 490/331/245 488/708/327
f 377/709/271 395/346/256 425/348/248
f 446/710/423 455/711/247 425/712/248
f 256/337/250 270/469/337 247/338/251
f 444/713/112 424/714/257 426/715/388
f 402/354/262 426/716/388 424/347/257
f 426/715/388 456/717/113 444/713/112
f 21/470/338 27/472/340 36/718/446
f 286/133/102 304/507/353 300/132/101
f 36/718/446 35/467/335 43/461/330
f 44/719/427 36/720/446 43/721/330
f 479/722/142 475/504/350 488/636/327
f 64/646/278 69/510/277 80/644/356
f 158/723/391 174/724/428 172/725/447
f 141/652/429 117/376/280 86/653/430
f 198/726/348 206/727/137 223/728/145
f 467/177/141 471/176/140 445/521/362
f 475/729/350 469/527/366 448/730/154
f 158/731/391 154/732/363 121/733/143
f 371/190/150 384/514/357 365/188/148
f 448/730/154 469/527/366 392/528/152
f 244/201/158 240/526/146 190/659/433
f 359/533/371 354/532/370 374/194/153
f 298/592/400 288/734/448 314/530/368
f 104/735/435 90/736/157 113/737/164
f 379/245/32 353/225/172 357/412/299
f 329/537/22 333/229/176 320/538/20
f 312/421/306 279/672/437 293/673/405
f 271/738/177 277/258/197 284/403/14
f 368/739/198 357/412/299 361/411/199
f 140/250/191 179/234/180 148/740/449
f 175/741/410 220/251/192 231/253/194
f 397/40/27 409/38/25 453/742/55
f 396/246/34 406/418/303 429/743/205
f 429/743/205 452/744/206 396/246/34
f 218/745/450 193/746/440 187/747/46
f 46/266/204 37/748/69 85/249/190
f 37/748/69 72/749/379 85/249/190
f 257/750/451 248/751/452 262/752/195
f 236/551/222 248/753/452 257/754/451
f 413/755/307 453/76/55 473/75/54
f 186/432/45 224/431/221 214/756/223
f 186/757/45 214/758/223 201/68/47
f 322/96/73 341/97/74 342/270/207
f 481/74/53 484/679/51 486/110/84
f 482/71/50 487/332/246 484/72/51
f 421/759/453 388/760/310 385/761/454
f 421/762/453 435/114/75 447/763/63
f 394/112/86 377/764/271 422/113/87
f 29/765/455 67/315/232 40/314/237
f 477/766/243 430/767/103 436/768/98
f 25/769/108 18/770/260 13/771/258
f 92/342/254 59/344/255 53/772/345
f 53/772/345 105/630/329 92/342/254
f 222/143/111 228/773/456 246/634/268
f 228/773/456 237/774/128 246/634/268
f 70/775/344 55/776/276 59/777/255
f 58/778/347 64/483/278 59/482/255
f 170/779/390 158/780/391 152/781/457
f 246/360/268 265/782/389 256/783/250
f 265/782/389 246/360/268 258/359/267
f 405/784/123 408/785/122 426/576/388
f 221/380/284 241/638/95 276/786/458
f 324/137/105 326/169/135 305/787/459
f 36/720/446 44/719/427 45/788/460
f 44/719/427 49/789/426 45/788/460
f 210/492/110 206/171/137 198/790/348
f 403/366/272 380/791/270 398/516/359
f 346/792/461 332/506/352 330/505/351
f 383/793/462 338/518/134 364/794/104
f 117/376/280 141/652/429 130/377/281
f 259/795/402 229/379/283 253/378/282
f 287/591/399 318/531/369 288/734/448
f 203/593/401 205/796/463 259/594/402
f 339/205/162 349/797/434 316/206/163
f 325/529/367 321/798/464 314/530/368
f 325/529/367 337/799/465 321/798/464
f 345/226/173 334/228/175 347/223/170
f 334/228/175 333/229/176 347/223/170
f 269/800/466 282/23/13 275/801/467
f 283/802/404 242/803/183 227/671/436
f 101/804/8 131/805/35 120/806/4
f 410/247/188 433/25/15 387/27/17
f 87/807/18 68/808/9 94/809/6
f 73/610/10 89/609/411 101/810/8
f 126/17/1 131/51/35 100/15/7
f 101/804/8 114/677/438 131/805/35
f 136/547/378 168/608/179 161/811/178
f 131/51/35 139/812/468 138/544/377
f 56/813/213 102/814/216 89/815/411
f 85/249/190 140/250/191 127/816/469
f 274/83/61 215/80/58 279/672/437
f 262/254/195 250/256/193 257/754/451
f 464/248/189 482/71/50 476/73/52
f 102/817/216 56/818/213 62/819/215
f 209/820/66 202/821/470 195/822/225
f 82/823/219 63/824/414 68/808/9
f 401/429/202 443/825/471 420/826/42
f 420/826/42 443/825/471 439/827/43
f 232/88/65 224/431/221 209/89/66
f 60/828/214 71/829/49 66/445/324
f 75/442/322 66/830/324 71/440/49
f 143/831/472 149/309/233 163/555/383
f 22/832/473 19/833/474 11/834/444
f 54/312/236 42/311/235 51/437/318
f 366/116/89 394/112/86 385/835/454
f 421/762/453 385/835/454 394/112/86
f 489/320/82 474/319/241 466/836/445
f 483/837/80 473/838/54 478/839/242
f 211/336/249 247/338/251 226/840/475
f 123/841/419 119/842/252 92/843/254
f 207/844/421 208/119/92 241/125/95
f 13/353/258 6/352/261 8/571/341
f 165/845/386 164/172/138 204/491/109
f 455/333/247 446/642/423 458/640/422
f 74/846/476 55/776/276 70/775/344
f 405/155/123 412/847/477 423/153/121
f 117/376/280 49/789/426 86/653/430
f 69/510/277 76/509/354 80/644/356
f 251/848/288 263/849/287 254/850/147
f 86/851/430 81/852/425 146/853/365
f 156/854/431 178/369/136 167/371/275
f 362/660/149 365/855/148 346/856/461
f 259/795/402 205/857/463 229/379/283
f 205/857/463 174/651/428 229/379/283
f 448/195/154 374/194/153 383/793/462
f 393/858/358 414/859/289 400/860/361
f 296/389/291 278/203/160 273/202/159
f 273/202/159 244/201/158 233/395/295
f 352/861/478 375/862/479 349/797/434
f 153/863/166 128/392/151 142/391/293
f 113/400/164 134/399/169 104/864/435
f 348/865/480 352/861/478 337/799/465
f 352/861/478 339/205/162 337/799/465
f 134/216/169 153/218/166 142/663/293
f 282/23/13 310/539/375 308/866/481
f 333/229/176 308/866/481 310/539/375
f 297/867/482 308/866/481 317/536/374
f 196/603/407 243/22/12 168/233/179
f 168/233/179 243/22/12 230/21/11
f 139/868/468 137/869/408 138/870/377
f 136/547/378 175/606/410 168/608/179
f 452/744/206 410/247/188 396/246/34
f 440/871/38 410/247/188 452/744/206
f 302/872/382 299/42/21 291/257/196
f 127/816/469 57/617/413 47/265/203
f 187/747/46 213/873/48 238/874/380
f 218/745/450 187/747/46 238/874/380
f 461/79/39 440/875/38 457/77/56
f 452/269/206 457/268/56 440/876/38
f 239/239/185 215/80/58 182/541/210
f 439/60/43 429/743/205 419/58/41
f 399/426/311 417/417/304 406/416/303
f 312/421/306 294/420/305 274/83/61
f 163/555/383 136/547/378 143/831/472
f 107/877/321 99/52/36 112/692/320
f 79/91/68 143/831/472 72/549/379
f 428/878/313 418/879/381 441/880/483
f 22/832/473 32/90/67 19/833/474
f 447/881/63 468/448/76 462/616/412
f 376/423/308 356/882/336 360/424/309
f 5/883/332 10/884/230 15/885/325
f 341/97/74 323/95/72 343/566/385
f 28/298/226 23/886/484 20/307/231
f 31/887/485 23/886/484 28/298/226
f 28/298/226 34/300/228 31/887/485
f 5/464/332 3/463/331 2/888/486
f 14/889/339 5/890/332 15/446/325
f 105/459/329 53/891/345 50/310/234
f 6/696/261 12/694/443 3/463/331
f 332/506/352 343/566/385 323/95/72
f 53/892/345 43/461/330 42/460/235
f 50/310/234 53/891/345 42/311/235
f 170/779/390 152/781/457 155/316/238
f 471/641/140 490/331/245 463/330/244
f 192/893/117 191/894/264 228/773/456
f 228/773/456 191/894/264 225/895/120
f 471/641/140 479/896/142 490/331/245
f 26/897/487 38/138/106 30/350/259
f 206/171/137 210/492/110 164/172/138
f 45/788/460 61/375/279 38/138/106
f 332/506/352 346/792/461 355/572/269
f 449/588/397 415/584/273 400/520/361
f 448/502/154 383/898/462 450/357/265
f 304/507/353 290/586/395 313/899/292
f 400/520/361 445/521/362 437/900/424
f 172/725/447 141/652/429 146/525/365
f 414/387/289 393/901/358 375/902/479
f 325/529/367 335/519/360 354/532/370
f 245/396/296 233/395/295 169/596/285
f 264/595/403 272/397/297 245/396/296
f 306/534/372 272/397/297 264/595/403
f 315/535/373 321/798/464 337/799/465
f 334/228/175 317/536/374 308/866/481
f 282/23/13 297/867/482 275/801/467
f 282/23/13 269/800/466 230/21/11
f 317/903/374 336/904/174 319/674/406
f 292/402/298 299/905/21 320/538/20
f 295/401/29 299/905/21 292/402/298
f 183/906/376 227/671/436 242/803/183
f 160/408/301 162/407/300 150/605/409
f 179/234/180 140/250/191 161/232/178
f 127/816/469 140/250/191 148/740/449
f 482/71/50 464/248/189 480/447/326
f 462/616/412 464/248/189 454/56/40
f 87/29/18 108/35/23 82/287/219
f 238/907/380 213/908/48 214/909/223
f 413/422/307 376/423/308 382/53/37
f 177/910/384 176/911/224 195/822/225
f 399/912/311 431/436/317 418/879/381
f 11/913/444 19/914/474 9/915/488
f 9/915/488 19/914/474 16/916/489
f 219/120/60 166/318/240 173/274/209
f 12/694/443 7/693/442 4/917/490
f 20/307/231 17/918/491 15/446/325
f 4/917/490 3/463/331 12/694/443
f 29/765/455 40/314/237 22/919/473
f 370/115/88 377/764/271 366/116/89
f 14/889/339 1/920/333 5/890/332
f 166/318/240 170/779/390 155/316/238
f 48/921/492 43/461/330 53/892/345
f 358/117/90 355/572/269 370/115/88
f 370/115/88 355/572/269 377/764/271
f 38/922/106 98/923/387 52/924/107
f 438/157/124 456/925/113 442/158/125
f 449/926/397 437/927/424 446/928/423
f 459/929/114 449/926/397 446/928/423
f 465/503/349 472/111/85 475/504/350
f 80/930/356 124/931/393 81/932/425
f 36/720/446 45/788/460 26/897/487
f 45/788/460 38/138/106 26/897/487
f 86/851/430 48/921/492 81/852/425
f 86/851/430 49/647/426 48/921/492
f 286/133/102 270/469/337 280/587/396
f 216/933/119 212/494/118 189/493/346
f 305/787/459 287/934/399 276/935/458
f 398/516/359 380/791/270 384/514/357
f 65/936/156 55/776/276 74/846/476
f 84/937/493 65/938/156 74/939/476
f 111/940/494 80/513/356 88/512/355
f 194/941/398 206/942/137 178/943/136
f 400/944/361 415/945/273 398/946/359
f 469/527/366 479/178/142 467/177/141
f 330/661/351 362/660/149 346/856/461
f 287/947/399 288/948/448 253/378/282
f 296/389/291 313/390/292 290/657/395
f 296/389/291 280/658/396 278/203/160
f 383/793/462 374/194/153 354/532/370
f 307/204/161 316/206/163 296/389/291
f 375/862/479 373/949/495 349/797/434
f 352/861/478 367/950/496 375/862/479
f 348/865/480 337/799/465 325/529/367
f 352/861/478 348/865/480 359/533/371
f 293/951/405 297/867/482 317/536/374
f 328/410/187 329/537/22 299/905/21
f 114/952/438 139/953/468 131/954/35
f 160/408/301 148/740/449 183/906/376
f 440/54/38 454/56/40 433/678/15
f 175/606/410 231/955/194 196/607/407
f 289/44/30 291/257/196 299/42/21
f 302/872/382 311/243/186 299/42/21
f 163/555/383 175/606/410 136/547/378
f 163/555/383 177/557/384 175/606/410
f 389/47/33 406/416/303 386/45/31
f 77/956/217 57/617/413 118/957/218
f 453/742/55 413/422/307 397/40/27
f 418/958/381 411/687/302 417/959/304
f 451/960/57 457/268/56 441/961/483
f 41/618/319 57/617/413 51/962/318
f 54/312/236 51/437/318 62/963/215
f 401/429/202 428/428/313 443/825/471
f 443/964/471 441/965/483 439/966/43
f 260/967/70 255/102/78 262/302/195
f 416/434/316 399/912/311 388/760/310
f 428/968/313 404/688/312 418/958/381
f 9/915/488 4/969/490 7/970/442
f 11/913/444 9/915/488 7/970/442
f 157/971/239 159/288/220 173/290/209
f 434/435/62 416/434/316 421/759/453
f 447/972/63 434/435/62 421/759/453
f 79/91/68 149/309/233 143/831/472
f 252/118/91 268/973/59 294/623/305
f 268/973/59 252/118/91 219/120/60
f 54/312/236 93/458/323 50/310/234
f 255/102/78 247/338/251 266/103/79
f 31/887/485 17/918/491 23/886/484
f 17/918/491 31/887/485 27/974/340
f 324/137/105 285/466/334 331/621/415
f 147/475/342 165/707/386 149/706/233
f 372/135/99 356/468/336 391/975/100
f 152/781/457 119/628/252 155/316/238
f 222/143/111 234/633/420 204/141/109
f 456/976/113 426/716/388 442/977/125
f 125/978/392 119/339/252 152/979/457
f 438/980/124 432/981/394 456/982/113
f 58/983/347 59/777/255 55/776/276
f 456/145/113 449/984/397 459/146/114
f 449/984/397 456/145/113 432/985/394
f 146/525/365 81/986/425 124/582/393
f 365/987/148 380/988/270 355/572/269
f 258/359/267 263/649/287 265/782/389
f 412/989/477 405/990/123 407/991/274
f 111/992/494 135/993/364 124/994/393
f 249/995/127 235/996/126 223/997/145
f 98/574/387 144/998/286 156/999/431
f 305/787/459 309/182/144 287/934/399
f 290/586/395 304/507/353 286/133/102
f 400/944/361 398/946/359 393/1000/358
f 288/734/448 259/594/402 253/1001/282
f 316/1002/163 330/661/351 313/1003/292
f 158/731/391 172/1004/447 154/732/363
f 233/395/295 244/201/158 190/659/433
f 427/388/290 414/387/289 375/902/479
f 307/204/161 296/389/291 273/202/159
f 273/202/159 233/395/295 272/397/297
f 359/533/371 348/865/480 325/529/367
f 349/797/434 339/205/162 352/861/478
f 310/539/375 282/23/13 292/402/298
f 227/671/436 269/800/466 275/801/467
f 227/671/436 275/801/467 283/802/404
f 357/412/299 353/225/172 329/537/22
f 319/674/406 336/904/174 350/236/182
f 433/678/15 464/248/189 460/242/19
f 350/236/182 340/235/181 319/674/406
f 440/54/38 433/678/15 410/1005/188
f 410/247/188 387/27/17 379/245/32
f 215/80/58 261/238/184 279/672/437
f 114/952/438 137/1006/408 139/953/468
f 277/258/197 271/738/177 262/1007/195
f 56/278/213 73/19/10 68/18/9
f 57/617/413 160/408/301 118/957/218
f 238/552/380 257/754/451 218/1008/450
f 399/426/311 406/416/303 389/47/33
f 62/1009/215 57/617/413 77/956/217
f 418/958/381 404/688/312 411/687/302
f 33/272/208 37/748/69 46/266/204
f 51/1010/318 57/1011/413 62/1012/215
f 39/546/227 47/265/203 41/618/319
f 301/94/71 291/1013/196 281/101/77
f 291/1013/196 301/94/71 302/554/382
f 157/691/239 138/544/377 159/1014/220
f 378/263/201 385/1015/454 388/425/310
f 37/92/69 79/91/68 72/549/379
f 461/1016/39 447/1017/63 462/1018/412
f 473/1019/54 466/1020/445 413/1021/307
f 480/447/326 487/332/246 482/71/50
f 10/1022/230 2/1023/486 16/916/489
f 24/1024/441 28/1025/226 10/1026/230
f 351/413/200 358/117/90 366/116/89
f 416/434/316 388/760/310 421/759/453
f 217/295/64 226/840/475 255/102/78
f 358/117/90 341/97/74 343/566/385
f 303/622/416 285/466/334 252/118/91
f 366/116/89 377/764/271 394/112/86
f 123/1027/419 105/459/329 122/629/418
f 122/629/418 105/459/329 93/458/323
f 8/571/341 1/573/333 14/1028/339
f 241/125/95 285/466/334 276/935/458
f 204/569/109 234/1029/420 211/567/249
f 256/1030/250 211/567/249 234/1029/420
f 147/475/342 164/474/138 165/707/386
f 36/718/446 27/472/340 35/467/335
f 380/362/270 395/365/256 377/363/271
f 324/137/105 305/787/459 285/466/334
f 426/716/388 408/1031/122 442/977/125
f 70/775/344 78/1032/253 91/1033/131
f 210/142/110 228/773/456 222/143/111
f 200/1034/115 228/773/456 210/142/110
f 110/1035/132 84/1036/493 70/775/344
f 380/791/270 403/366/272 402/577/262
f 98/574/387 61/375/279 144/998/286
f 383/898/462 364/1037/104 450/357/265
f 365/987/148 355/572/269 346/792/461
f 240/1038/146 251/1039/288 254/1040/147
f 414/387/289 467/177/141 445/521/362
f 393/1041/358 371/1042/150 373/949/495
f 90/736/157 104/735/435 65/1043/156
f 133/211/167 96/1044/139 128/212/151
f 392/193/152 375/862/479 367/950/496
f 427/1045/290 375/862/479 392/193/152
f 306/534/372 321/798/464 315/535/373
f 333/229/176 334/228/175 308/866/481
f 350/1046/182 345/1047/173 363/1048/24
f 347/223/170 363/222/24 345/226/173
f 283/802/404 275/801/467 297/867/482
f 293/673/405 319/674/406 312/421/306
f 89/675/411 114/677/438 101/804/8
f 340/235/181 381/39/26 382/53/37
f 406/418/303 396/246/34 386/1049/31
f 85/548/190 136/547/378 161/811/178
f 183/540/376 239/239/185 182/541/210
f 102/1050/216 118/1051/218 114/1052/438
f 47/265/203 85/249/190 127/816/469
f 175/1053/410 177/910/384 202/821/470
f 406/418/303 419/58/41 429/743/205
f 68/808/9 87/807/18 82/823/219
f 118/1054/218 150/1055/409 137/1056/408
f 160/408/301 150/605/409 118/957/218
f 481/74/53 453/76/55 484/679/51
f 322/96/73 311/271/186 302/554/382
f 63/824/414 60/1057/214 68/808/9
f 60/279/214 56/278/213 68/18/9
f 177/910/384 195/822/225 202/821/470
f 181/1058/315 188/1059/439 199/1060/314
f 186/1061/45 180/1062/44 181/1063/315
f 201/68/47 214/758/223 213/69/48
f 71/1064/49 99/1065/36 107/1066/321
f 224/291/221 232/1067/65 236/292/222
f 248/751/452 236/292/222 232/1067/65
f 66/445/324 54/444/236 60/828/214
f 416/434/316 431/436/317 399/912/311
f 451/1068/57 441/1069/483 431/1070/317
f 63/824/414 71/1071/49 60/1057/214
f 2/1023/486 9/915/488 16/916/489
f 331/621/415 344/1072/211 356/468/336
f 22/832/473 40/620/237 32/90/67
f 157/1073/239 155/1074/238 112/1075/320
f 173/274/209 166/318/240 157/317/239
f 5/883/332 2/1076/486 10/884/230
f 23/1077/484 17/1078/491 20/1079/231
f 301/94/71 300/132/101 323/95/72
f 474/564/241 436/563/98 466/1080/445
f 496/1081/328 491/1082/97 495/1083/96
f 165/707/386 211/336/249 176/294/224
f 27/472/340 31/1084/485 35/467/335
f 470/457/266 430/1085/103 477/455/243
f 119/628/252 123/1027/419 122/629/418
f 25/1086/108 29/765/455 18/1087/260
f 488/636/327 475/504/350 472/111/85
f 91/1033/131 110/1035/132 70/775/344
f 235/159/126 237/161/128 225/152/120
f 365/188/148 384/514/357 380/791/270
f 445/521/362 471/176/140 458/1088/422
f 313/899/292 330/505/351 304/507/353
f 400/520/361 437/900/424 449/588/397
f 84/1089/493 95/167/133 65/1090/156
f 110/165/132 95/167/133 84/1089/493
f 88/512/355 129/667/294 111/940/494
f 55/1091/276 65/1092/156 76/1093/354
f 88/512/355 104/665/435 129/667/294
f 65/1092/156 88/1094/355 76/1093/354
f 121/1095/143 135/1096/364 129/1097/294
f 371/1042/150 362/1098/149 373/949/495
f 190/659/433 194/590/398 171/1099/432
f 330/661/351 316/1002/163 349/662/434
f 335/519/360 325/529/367 318/531/369
f 373/949/495 362/1098/149 349/797/434
f 288/734/448 318/531/369 314/530/368
f 264/595/403 203/593/401 298/592/400
f 308/866/481 297/867/482 282/23/13
f 283/598/404 297/1100/482 293/599/405
f 227/671/436 230/21/11 269/800/466
f 179/234/180 183/906/376 148/740/449
f 215/80/58 239/239/185 261/238/184
f 118/1051/218 137/1101/408 114/1052/438
f 279/672/437 312/421/306 274/83/61
f 250/252/193 220/251/192 218/745/450
f 382/53/37 360/424/309 340/235/181
f 262/302/195 267/301/229 277/1102/197
f 441/961/483 457/268/56 429/267/205
f 439/966/43 441/965/483 429/1103/205
f 60/279/214 54/1104/236 62/280/215
f 199/1105/314 188/1106/439 202/1107/470
f 138/544/377 112/692/320 99/52/36
f 441/880/483 418/879/381 431/436/317
f 2/1023/486 4/969/490 9/915/488
f 431/1070/317 434/1108/62 451/1068/57
f 112/1109/320 122/629/418 75/1110/322
f 2/888/486 3/463/331 4/917/490
f 176/294/224 211/336/249 226/840/475
f 255/102/78 226/840/475 247/338/251
f 478/839/242 473/838/54 470/1111/266
f 478/1112/242 492/1113/81 483/1114/80
f 463/1115/244 468/1116/76 435/1117/75
f 166/318/240 219/120/60 208/119/92
f 34/462/228 35/467/335 31/1084/485
f 67/315/232 52/1118/107 147/475/342
f 207/844/421 166/318/240 208/119/92
f 25/1086/108 67/315/232 29/765/455
f 67/315/232 25/1086/108 52/1118/107
f 14/889/339 17/918/491 27/974/340
f 207/639/421 170/579/390 166/1119/240
f 446/1120/423 444/144/112 459/146/114
f 119/339/252 125/978/392 106/340/129
f 463/330/244 455/333/247 471/641/140
f 49/647/426 43/461/330 48/921/492
f 64/1121/278 81/1122/425 48/1123/492
f 210/492/110 198/790/348 200/147/115
f 405/784/123 426/576/388 407/368/274
f 450/357/265 364/1037/104 372/130/99
f 189/499/346 184/1124/116 198/500/348
f 432/1125/394 412/1126/477 407/1127/274
f 432/1128/394 438/1129/124 412/1130/477
f 423/1131/121 412/1130/477 438/1129/124
f 189/1132/346 223/997/145 197/1133/497
f 130/377/281 144/998/286 61/375/279
f 125/581/392 121/181/143 106/180/129
f 129/1134/294 135/993/364 111/992/494
f 223/1135/145 206/1136/137 194/1137/398
f 156/1138/431 144/1139/286 171/1140/432
f 354/532/370 338/518/134 383/793/462
f 205/857/463 141/1141/429 174/651/428
f 171/1142/432 194/1143/398 178/1144/136
f 338/518/134 354/532/370 335/519/360
f 309/517/144 335/519/360 318/531/369
f 190/659/433 144/1145/286 169/596/285
f 393/1041/358 373/949/495 375/862/479
f 314/530/368 321/798/464 306/534/372
f 392/193/152 367/950/496 374/194/153
f 350/1146/182 336/227/174 345/226/173
f 369/224/171 387/27/17 390/26/16
f 292/402/298 320/538/20 310/539/375
f 230/21/11 179/234/180 168/233/179
f 453/240/55 460/242/19 476/73/52
f 312/421/306 340/235/181 327/277/212
f 257/754/451 250/256/193 218/1008/450
f 220/251/192 193/746/440 218/745/450
f 193/1147/440 220/1148/192 202/1149/470
f 202/1150/470 188/1151/439 193/1152/440
f 342/270/207 341/97/74 351/413/200
f 16/916/489 33/272/208 24/690/441
f 16/916/489 19/914/474 33/272/208
f 19/914/474 37/748/69 33/272/208
f 209/820/66 199/1153/314 202/821/470
f 461/79/39 451/78/57 434/1154/62
f 294/420/305 268/81/59 274/83/61
f 248/751/452 232/1067/65 260/1155/70
f 28/298/226 24/1156/441 39/299/227
f 255/102/78 260/967/70 217/295/64
f 360/424/309 356/882/336 344/276/211
f 155/316/238 122/629/418 112/1109/320
f 421/762/453 394/112/86 435/114/75
f 391/561/100 356/882/336 376/423/308
f 6/1157/261 18/1158/260 11/1159/444
f 29/1160/455 22/1161/473 18/1162/260
f 356/468/336 324/137/105 331/621/415
f 331/621/415 285/466/334 303/622/416
f 425/1163/248 422/1164/87 377/1165/271
f 52/1118/107 145/476/343 147/475/342
f 21/470/338 26/1166/487 13/1167/258
f 48/1168/492 53/1169/345 64/1170/278
f 26/897/487 30/350/259 13/349/258
f 164/474/138 145/476/343 167/1171/275
f 237/161/128 249/160/127 258/359/267
f 145/575/343 98/574/387 156/999/431
f 167/1172/275 145/575/343 156/999/431
f 170/1173/390 174/724/428 158/723/391
f 249/160/127 254/650/147 258/359/267
f 111/992/494 124/994/393 80/1174/356
f 152/1175/457 158/580/391 125/581/392
f 117/376/280 45/788/460 49/789/426
f 117/376/280 61/375/279 45/788/460
f 235/996/126 197/1133/497 223/997/145
f 287/947/399 253/378/282 221/380/284
f 393/515/358 384/514/357 371/190/150
f 314/530/368 306/534/372 298/592/400
f 352/861/478 359/533/371 367/950/496
f 374/194/153 367/950/496 359/533/371
f 306/534/372 264/595/403 298/592/400
f 339/205/162 307/204/161 315/535/373
f 73/610/10 101/810/8 94/1176/6
f 131/805/35 126/1177/1 120/806/4
f 261/1178/184 242/803/183 283/802/404
f 179/234/180 227/671/436 183/906/376
f 160/408/301 57/617/413 148/740/449
f 57/617/413 127/816/469 148/740/449
f 202/1179/470 220/1180/192 175/1181/410
f 238/552/380 236/551/222 257/754/451
f 188/1182/439 181/1183/315 180/1184/44
f 136/547/378 72/549/379 143/831/472
f 248/751/452 260/1155/70 262/752/195
f 351/413/200 366/116/89 368/1185/198
f 366/1186/89 378/1187/201 368/1188/198
f 388/425/310 389/47/33 378/263/201
f 344/276/211 294/420/305 327/277/212
f 209/89/66 224/431/221 199/430/314
f 10/1022/230 16/916/489 24/690/441
f 32/1189/67 37/748/69 19/914/474
f 366/116/89 385/835/454 378/1190/201
f 428/878/313 441/880/483 443/1191/471
f 344/1072/211 331/621/415 294/623/305
f 149/309/233 176/556/224 163/555/383
f 226/840/475 217/295/64 176/294/224
f 75/1192/322 93/443/323 66/445/324
f 93/443/323 75/1192/322 122/1193/418
f 42/311/235 34/1194/228 41/438/319
f 11/1195/444 18/1196/260 22/1197/473
f 496/452/328 497/454/83 493/1198/417
f 493/1199/417 497/1200/83 492/1201/81
f 466/1080/445 436/563/98 413/1202/307
f 301/94/71 281/101/77 266/103/79
f 17/918/491 14/889/339 15/446/325
f 497/124/83 495/1203/96 494/121/93
f 477/1204/243 436/1205/98 485/1206/94
f 455/333/247 463/330/244 422/334/87
f 444/144/112 446/1120/423 425/1207/248
f 200/1034/115 192/893/117 228/773/456
f 234/633/420 222/143/111 246/634/268
f 25/140/108 30/350/259 38/138/106
f 285/466/334 305/787/459 276/935/458
f 490/1208/245 479/722/142 488/636/327
f 225/895/120 237/774/128 228/773/456
f 184/148/116 185/355/263 192/149/117
f 221/380/284 170/579/390 207/639/421
f 26/1166/487 21/470/338 36/718/446
f 84/1036/493 74/846/476 70/775/344
f 465/503/349 450/357/265 472/111/85
f 403/366/272 407/368/274 426/576/388
f 184/148/116 200/147/115 198/790/348
f 326/169/135 309/182/144 305/787/459
f 189/1209/346 185/355/263 184/148/116
f 221/380/284 276/786/458 287/947/399
f 437/1210/424 445/1211/362 458/1212/422
f 235/1213/126 216/1214/119 197/1215/497
f 197/1216/497 216/933/119 189/493/346
f 469/527/366 475/729/350 479/178/142
f 280/587/396 270/469/337 263/1217/287
f 263/1217/287 270/469/337 265/578/389
f 174/724/428 141/652/429 172/725/447
f 169/381/285 130/383/281 141/1218/429
f 467/177/141 427/388/290 469/527/366
f 169/596/285 141/1219/429 203/593/401
f 205/796/463 203/593/401 141/1219/429
f 190/659/433 171/1099/432 144/1145/286
f 88/1220/355 65/1043/156 104/735/435
f 121/1221/143 129/1222/294 128/1223/151
f 278/1224/160 280/1225/396 263/1226/287
f 172/725/447 146/525/365 154/523/363
f 298/592/400 259/594/402 288/734/448
f 190/659/433 169/596/285 233/395/295
f 315/535/373 307/204/161 273/202/159
f 339/205/162 315/535/373 337/799/465
